<svg width="695" height="266" viewBox="0 0 695 266" fill="none" xmlns="http://www.w3.org/2000/svg">
    <path d="M190.989 113.84C190.643 112.827 190.06 111.912 189.289 111.17C189.004 110.906 188.696 110.668 188.369 110.46C185.759 108.72 181.859 108.33 179.379 110.46C179.129 110.676 178.898 110.914 178.689 111.17C177.949 112.08 177.189 112.97 176.409 113.84C175.129 115.3 173.819 116.71 172.449 118.08C172.059 118.46 171.669 118.85 171.269 119.23C171.039 119.46 170.809 119.68 170.579 119.9C169.699 120.74 168.799 121.55 167.889 122.35C167.409 122.78 166.929 123.2 166.439 123.61C165.709 124.22 164.979 124.83 164.239 125.42C164.169 125.47 164.099 125.52 164.029 125.58C164.009 125.59 163.999 125.61 163.979 125.62C163.969 125.62 163.959 125.62 163.949 125.64C163.922 125.65 163.898 125.668 163.879 125.69C163.659 125.84 163.509 125.94 163.399 126.03C163.439 126.01 163.479 125.98 163.519 125.96C163.339 126.1 163.149 126.24 162.969 126.38C161.219 127.67 159.429 128.91 157.599 130.07C153.071 132.967 148.316 135.493 143.379 137.62C143.049 137.75 142.709 137.89 142.369 138.02C129.443 143.315 115.422 145.381 101.519 144.04C100.099 143.93 98.6788 143.78 97.2588 143.59C95.6188 143.35 93.9888 143.06 92.3688 142.73C86.2014 141.499 80.1669 139.677 74.3488 137.29C67.071 133.957 60.149 129.896 53.6888 125.17C52.6888 124.46 51.6788 123.75 50.6688 123.06C51.8188 120.24 52.9488 117.42 54.0488 114.58C54.5988 113.21 55.1288 111.84 55.6488 110.46C59.7388 99.8298 63.5788 89.0997 67.2588 78.3298C70.9788 67.4198 74.4888 56.4464 77.7888 45.4098C78.1288 44.2898 78.4588 43.1698 78.7788 42.0498C80.5088 36.2198 82.1688 30.3764 83.7588 24.5198C83.9088 23.9498 84.0688 23.3898 84.2088 22.8198C84.6688 21.1398 85.1188 19.4598 85.5588 17.7798C86.5588 13.9898 84.2988 9.45978 80.3188 8.54978C78.4025 8.05845 76.3704 8.33013 74.6505 9.30759C72.9306 10.2851 71.6573 11.892 71.0988 13.7898C70.6688 15.4098 70.2388 17.0198 69.7988 18.6398C67.6888 26.4697 65.4688 34.2731 63.1388 42.0498C62.7988 43.1698 62.4588 44.2898 62.1188 45.4098C56.9788 62.3498 51.3355 79.1198 45.1888 95.7198C44.4488 97.7298 43.6988 99.7331 42.9388 101.73C42.5688 102.71 42.1988 103.69 41.8188 104.67C41.0888 106.6 40.3388 108.53 39.5888 110.46C39.1588 111.59 38.7188 112.72 38.2788 113.84C37.9888 114.55 37.7088 115.26 37.4288 115.96C34.5776 114.936 31.6236 114.225 28.6188 113.84L28.1388 113.78C25.8092 113.499 23.4533 113.52 21.1288 113.84C17.6499 114.246 14.3026 115.411 11.3235 117.253C8.34451 119.095 5.80647 121.569 3.88883 124.5C-0.881174 132.01 -0.821178 142.75 5.86882 149.13C12.7588 155.7 23.1888 155.65 31.2988 151.54C35.5966 149.215 39.2204 145.818 41.8188 141.68C42.8143 140.18 43.7289 138.627 44.5588 137.03C44.7688 137.17 44.9788 137.31 45.1888 137.46C45.9888 138.02 46.7888 138.59 47.5788 139.15C52.1818 142.484 57.0326 145.463 62.0888 148.06C72.9608 153.465 84.6638 157.004 96.7088 158.53C96.9788 158.56 97.2388 158.6 97.5088 158.63C98.8388 158.8 100.179 158.93 101.519 159.04C120.741 160.488 139.987 156.555 157.099 147.68C158.549 146.93 159.985 146.143 161.409 145.32C163.619 144.04 165.779 142.68 167.889 141.24C169.039 140.46 170.159 139.67 171.269 138.84C176.119 135.267 180.641 131.268 184.779 126.89C186.349 125.24 187.852 123.536 189.289 121.78C190.647 120.343 191.43 118.456 191.489 116.48C191.481 115.577 191.312 114.683 190.989 113.84ZM25.3988 137.66C25.6088 137.51 25.8188 137.35 26.0188 137.19C25.9589 137.34 25.6688 137.51 25.3988 137.66ZM28.6088 134.43C28.3788 134.69 28.1688 134.95 27.9388 135.21C27.2391 135.993 26.4874 136.728 25.6888 137.41C25.5788 137.51 25.4588 137.61 25.3388 137.7C25.3375 137.7 25.3362 137.7 25.335 137.7C25.3337 137.701 25.3326 137.702 25.3317 137.703C25.3308 137.704 25.33 137.705 25.3295 137.706C25.329 137.707 25.3288 137.708 25.3288 137.71C25.1844 137.774 25.0441 137.848 24.9088 137.93C24.4788 138.19 24.0388 138.43 23.5888 138.65C22.7078 138.974 21.8013 139.225 20.8788 139.4C20.17 139.451 19.4585 139.458 18.7488 139.42H18.7288C18.239 139.311 17.7551 139.178 17.2788 139.02C17.0388 138.9 16.8088 138.76 16.5788 138.62C16.4888 138.54 16.4088 138.46 16.3588 138.41C16.2611 138.321 16.1709 138.224 16.0889 138.12C16.0889 138.118 16.0887 138.117 16.0882 138.116C16.0877 138.115 16.087 138.114 16.086 138.113C16.0851 138.112 16.084 138.111 16.0827 138.11C16.0815 138.11 16.0802 138.11 16.0789 138.11C15.9688 137.91 15.8488 137.71 15.7389 137.51C15.7332 137.505 15.7296 137.497 15.7289 137.49C15.6489 137.24 15.5789 136.98 15.5189 136.72C15.4972 136.263 15.5005 135.806 15.5289 135.35C15.6631 134.711 15.8435 134.083 16.0689 133.47C16.2713 133.035 16.5018 132.614 16.7589 132.21C16.7789 132.17 16.8789 132.01 16.9889 131.83C16.9989 131.82 16.9989 131.82 16.9989 131.81C17.1489 131.64 17.2989 131.46 17.4589 131.3C17.7289 131 18.0189 130.74 18.3089 130.47C18.8729 130.101 19.4571 129.763 20.0589 129.46C21.0135 129.121 21.9932 128.857 22.9889 128.67C24.4572 128.553 25.9329 128.566 27.3989 128.71C28.7874 128.951 30.1574 129.288 31.4989 129.72C30.6858 131.298 29.7601 132.815 28.7289 134.26C28.6888 134.32 28.6489 134.38 28.6088 134.43ZM17.4888 131.14C17.4007 131.281 17.2967 131.412 17.1788 131.53C17.2582 131.382 17.3632 131.25 17.4888 131.14Z" fill="#2563EA"/>
    <path d="M160.929 11.71C160.839 14.85 160.749 17.99 160.659 21.13C160.469 28.1 160.272 35.0733 160.069 42.05C159.859 49.9 159.639 57.7466 159.409 65.59C159.299 69.64 159.185 73.69 159.069 77.74C158.759 88.65 158.452 99.5566 158.149 110.46C158.119 111.59 158.079 112.71 158.049 113.84C157.899 119.25 157.749 124.66 157.599 130.07C157.429 135.94 157.262 141.81 157.099 147.68C156.979 152.08 156.855 156.483 156.729 160.89C155.829 192.82 154.929 224.75 154.029 256.68C153.991 258.657 153.188 260.543 151.79 261.941C150.392 263.34 148.506 264.142 146.529 264.18C144.545 264.164 142.646 263.369 141.243 261.966C139.84 260.563 139.045 258.664 139.029 256.68C139.529 238.72 140.035 220.76 140.549 202.8C140.999 186.56 141.455 170.32 141.919 154.08C142.069 148.73 142.219 143.377 142.369 138.02C142.599 129.96 142.825 121.9 143.049 113.84C143.079 112.71 143.119 111.59 143.149 110.46C143.169 109.47 143.199 108.49 143.229 107.5C143.669 91.85 144.109 76.1966 144.549 60.54C144.729 54.38 144.902 48.2167 145.069 42.05C145.269 35.02 145.469 27.9933 145.669 20.97C145.759 17.88 145.839 14.8 145.929 11.71C145.967 9.73274 146.769 7.8471 148.168 6.44873C149.566 5.05036 151.452 4.24798 153.429 4.20996C155.413 4.22595 157.311 5.02127 158.714 6.42435C160.117 7.82742 160.913 9.72578 160.929 11.71Z" fill="#2563EA"/>
    <path d="M572.357 13.7917C564.492 43.5714 555.093 72.9243 544.196 101.733C541.189 109.679 538.113 117.61 534.824 125.445L535.58 123.653C534.113 127.385 532.238 130.944 529.991 134.265C529.838 134.479 529.682 134.691 529.524 134.901C530.301 133.908 530.449 133.712 529.967 134.312C529.713 134.613 529.462 134.915 529.199 135.208C528.499 135.991 527.748 136.727 526.95 137.411C526.749 137.583 526.545 137.751 526.338 137.915L527.276 137.186C527.167 137.443 526.404 137.784 526.166 137.929C525.395 138.394 524.591 138.801 523.761 139.148L525.552 138.392C524.191 138.94 522.772 139.33 521.321 139.552L523.315 139.285C521.89 139.481 520.446 139.497 519.017 139.331L521.011 139.598C519.842 139.437 518.698 139.129 517.606 138.681L519.398 139.437C518.815 139.184 518.254 138.884 517.719 138.541C517.447 138.364 516.614 137.733 517.704 138.566C518.837 139.432 517.85 138.64 517.616 138.41C517.422 138.218 517.247 138.01 517.057 137.815C516.174 136.911 518.053 139.372 517.453 138.314C517.133 137.783 516.84 137.237 516.575 136.677L517.331 138.469C516.987 137.616 516.743 136.726 516.603 135.817L516.871 137.811C516.728 136.681 516.727 135.537 516.868 134.406L516.6 136.4C516.784 135.138 517.117 133.902 517.595 132.72L516.839 134.511C517.172 133.716 517.566 132.948 518.017 132.213C518.225 131.833 518.469 131.474 518.745 131.141C518.794 131.157 517.477 132.654 518.176 131.898C518.359 131.701 518.53 131.493 518.715 131.296C519.011 130.983 519.328 130.696 519.641 130.399C520.685 129.404 518.179 131.365 519.384 130.578C520.258 130.003 521.177 129.502 522.133 129.078L520.342 129.834C521.943 129.177 523.622 128.727 525.337 128.495L523.343 128.762C525.491 128.515 527.662 128.541 529.804 128.839L527.81 128.571C530.522 128.982 533.173 129.728 535.702 130.791L533.91 130.035C539.3 132.349 544.073 135.784 548.838 139.153C553.44 142.486 558.29 145.463 563.344 148.059C574.217 153.465 585.921 157.006 597.967 158.533C615.242 160.649 632.772 158.393 648.949 151.972C665.126 145.551 679.431 135.169 690.552 121.781C691.909 120.342 692.691 118.455 692.749 116.478C692.735 114.492 691.947 112.589 690.552 111.175C687.801 108.649 682.603 107.936 679.945 111.175C677.427 114.249 674.72 117.164 671.839 119.902C670.494 121.178 669.113 122.414 667.697 123.611C666.887 124.295 666.067 124.966 665.236 125.623C664.842 125.933 663.617 126.761 665.499 125.425C665.067 125.731 664.654 126.066 664.228 126.38C657.93 131.023 651.106 134.905 643.896 137.945L645.688 137.189C637.951 140.434 629.826 142.66 621.516 143.811L623.51 143.543C614.962 144.668 606.302 144.655 597.757 143.505L599.75 143.773C591.207 142.6 582.852 140.324 574.893 137.003L576.685 137.759C569.005 134.361 561.717 130.139 554.949 125.168C551.426 122.559 547.711 120.221 543.836 118.174C539.321 115.868 534.432 114.382 529.398 113.785C519.959 112.674 510.341 116.351 505.152 124.505C500.376 132.01 500.438 142.749 507.125 149.131C514.013 155.703 524.444 155.648 532.561 151.536C540.378 147.577 545.074 139.351 548.376 131.594C555.807 114.139 562.386 96.2808 568.516 78.3314C574.58 60.5733 580.08 42.6355 585.014 24.5181C585.625 22.2742 586.228 20.028 586.821 17.7794C587.822 13.9907 585.56 9.4594 581.583 8.55351C579.666 8.06007 577.632 8.33054 575.911 9.30785C574.19 10.2852 572.916 11.8928 572.357 13.7917Z" fill="#2563EA"/>
    <path d="M647.189 11.71L644.49 107.503L641.804 202.797L640.286 256.681C640.303 258.665 641.098 260.563 642.501 261.966C643.904 263.368 645.802 264.164 647.786 264.181C649.763 264.143 651.649 263.34 653.047 261.942C654.445 260.544 655.248 258.658 655.286 256.681L657.985 160.888L660.671 65.5936L662.189 11.71C662.173 9.72606 661.377 7.8282 659.974 6.42532C658.571 5.02244 656.673 4.22684 654.689 4.20996C652.712 4.24817 650.827 5.05062 649.428 6.44894C648.03 7.84727 647.228 9.7328 647.189 11.71Z" fill="#2563EA"/>
    <path d="M447.887 84.0608C439.278 67.2686 425.941 53.1399 410.255 42.7572C394.518 32.3888 376.461 26.0746 357.692 24.3773C355.232 24.1537 352.765 24.0228 350.293 23.9845C347.372 23.9408 303.427 36.6163 288.706 46.9666C273.993 57.1908 261.89 70.7307 253.373 86.4936C244.871 102.343 240.689 120.15 241.247 138.127C241.976 156.212 247.017 173.861 255.95 189.603C264.761 205.294 277.272 218.594 292.394 228.349C307.732 238.135 323.139 264.084 341.249 265C359.494 265.923 380.303 241.445 396.944 234.013C413.585 226.519 427.971 214.795 438.669 200.008C449.065 185.518 455.79 168.721 458.268 151.06C460.842 132.977 459.642 114.328 453.467 97.0442C451.883 92.6031 450.019 88.2666 447.887 84.0608C446.107 80.5556 440.891 79.2649 437.625 81.3702C435.943 82.4062 434.725 84.0506 434.224 85.9617C433.723 87.8728 433.977 89.9035 434.935 91.6316C435.98 93.6901 436.952 95.7826 437.85 97.9092L437.094 96.1176C440.494 104.293 442.806 112.879 443.971 121.656L443.703 119.662C444.941 129.184 444.919 138.828 443.636 148.345L443.904 146.351C442.608 155.866 440.068 165.17 436.35 174.025L437.106 172.233C435.193 176.751 432.964 181.128 430.434 185.332C429.152 187.455 427.792 189.529 426.354 191.553C425.722 192.441 425.071 193.314 424.415 194.184C423.558 195.32 425.582 192.701 424.697 193.815C424.546 194.005 424.397 194.195 424.245 194.384C423.791 194.952 423.33 195.515 422.863 196.072C419.745 199.792 416.343 203.263 412.687 206.456C411.776 207.25 410.85 208.027 409.909 208.787C409.44 209.165 408.977 209.559 408.488 209.911C408.507 209.898 410.068 208.712 409.144 209.4C408.853 209.617 408.565 209.837 408.274 210.052C406.334 211.489 404.343 212.853 402.3 214.144C397.596 217.107 392.662 219.687 387.544 221.857L389.336 221.101C380.508 224.818 371.229 227.357 361.739 228.653L363.733 228.385C354.248 229.667 344.634 229.684 335.144 228.436L337.138 228.703C328.513 227.545 320.076 225.264 312.042 221.919L313.834 222.675C309.181 220.71 304.694 218.372 300.418 215.684C298.302 214.351 296.241 212.935 294.234 211.437C293.948 211.223 293.664 211.006 293.379 210.791C292.464 210.1 294.037 211.301 294.05 211.309C293.517 210.927 293.005 210.518 292.515 210.084C291.546 209.295 290.592 208.488 289.653 207.662C285.897 204.355 282.39 200.775 279.16 196.953C278.351 195.997 277.56 195.027 276.786 194.042C276.451 193.616 275.839 192.752 277.19 194.571C277.012 194.332 276.828 194.097 276.649 193.859C276.218 193.287 275.792 192.712 275.373 192.131C273.904 190.099 272.508 188.017 271.185 185.885C268.195 181.06 265.585 176.008 263.38 170.777L264.136 172.569C260.527 163.982 258.059 154.96 256.795 145.732L257.063 147.725C255.923 139.219 255.907 130.6 257.015 122.09L256.747 124.083C257.883 115.842 260.1 107.786 263.341 100.124L262.585 101.916C264.625 97.1193 267.03 92.4869 269.781 88.0596C271.158 85.8441 272.617 83.6825 274.158 81.5749C274.508 81.096 274.863 80.6201 275.221 80.1471C275.545 79.7192 276.436 78.6537 274.915 80.5355C275.064 80.351 275.208 80.1612 275.355 79.9751C276.201 78.9034 277.067 77.8484 277.954 76.8101C281.312 72.8794 284.949 69.1962 288.838 65.7893C289.82 64.9282 290.819 64.0852 291.832 63.2603C292.293 62.8855 292.757 62.5145 293.223 62.1474C293.41 62.0007 293.599 61.8567 293.785 61.7088C291.787 63.2984 293.23 62.1414 293.683 61.8017C295.773 60.2362 297.918 58.749 300.119 57.3404C305.011 54.2114 310.158 51.4992 315.505 49.2324L313.714 49.9885C321.474 46.7302 355.854 39.0393 362.108 39.8788L360.114 39.6109C369.305 40.894 378.288 43.3759 386.834 46.9932L385.042 46.2372C389.373 48.0761 393.581 50.1901 397.642 52.5664C399.671 53.7558 401.66 55.01 403.61 56.3289C404.532 56.9533 405.445 57.5916 406.348 58.2439C406.799 58.57 407.248 58.8996 407.694 59.2327C407.942 59.4178 408.188 59.6053 408.435 59.7908C409.475 60.5698 407.004 58.6626 408.093 59.5242C411.739 62.3887 415.202 65.4792 418.461 68.7774C420.062 70.4074 421.607 72.0892 423.098 73.8226C423.862 74.7121 424.611 75.6145 425.344 76.5301C425.709 76.9851 426.949 78.6311 425.429 76.6147C425.8 77.1076 426.176 77.5971 426.543 78.0935C429.703 82.371 432.51 86.8987 434.935 91.6316C436.728 95.1294 441.922 96.4335 445.196 94.3223C446.879 93.2869 448.098 91.6424 448.599 89.731C449.1 87.8197 448.845 85.7888 447.887 84.0608Z" fill="#2563EA"/>
    <path d="M23.2488 144C29.3239 144 34.2488 139.075 34.2488 133C34.2488 126.925 29.3239 122 23.2488 122C17.1736 122 12.2488 126.925 12.2488 133C12.2488 139.075 17.1736 144 23.2488 144Z" fill="#2563EA"/>
    <path d="M155.249 264C161.324 264 166.249 259.075 166.249 253C166.249 246.925 161.324 242 155.249 242C149.174 242 144.249 246.925 144.249 253C144.249 259.075 149.174 264 155.249 264Z" fill="#2563EA"/>
    <path d="M656.249 264C662.324 264 667.249 259.075 667.249 253C667.249 246.925 662.324 242 656.249 242C650.174 242 645.249 246.925 645.249 253C645.249 259.075 650.174 264 656.249 264Z" fill="#2563EA"/>
    <path d="M683.249 124C689.324 124 694.249 119.075 694.249 113C694.249 106.925 689.324 102 683.249 102C677.174 102 672.249 106.925 672.249 113C672.249 119.075 677.174 124 683.249 124Z" fill="#2563EA"/>
    <path d="M651.249 22C657.324 22 662.249 17.0751 662.249 11C662.249 4.92487 657.324 0 651.249 0C645.174 0 640.249 4.92487 640.249 11C640.249 17.0751 645.174 22 651.249 22Z" fill="#2563EA"/>
    <path d="M192.249 113C192.242 115.81 191.156 118.51 189.214 120.541C187.272 122.572 184.624 123.778 181.817 123.911C179.011 124.044 176.26 123.093 174.136 121.254C172.011 119.416 170.674 116.831 170.402 114.034C170.13 111.237 170.944 108.443 172.675 106.23C174.406 104.016 176.921 102.553 179.701 102.143C182.481 101.732 185.312 102.407 187.608 104.025C189.905 105.644 191.491 108.084 192.039 110.84C192.18 111.551 192.25 112.275 192.249 113Z" fill="#2563EA"/>
    <path d="M412.249 54C418.324 54 423.249 49.0751 423.249 43C423.249 36.9249 418.324 32 412.249 32C406.174 32 401.249 36.9249 401.249 43C401.249 49.0751 406.174 54 412.249 54Z" fill="#2563EA"/>
    <path d="M303.249 43.0002C303.242 45.81 302.156 48.5097 300.214 50.5407C298.272 52.5716 295.624 53.7784 292.817 53.9112C290.011 54.044 287.26 53.0927 285.136 51.2542C283.011 49.4156 281.674 46.8306 281.402 44.0339C281.13 41.2373 281.944 38.4432 283.675 36.2298C285.406 34.0164 287.921 32.5531 290.701 32.1428C293.481 31.7325 296.312 32.4065 298.608 34.0255C300.905 35.6444 302.491 38.0842 303.039 40.8402C303.18 41.5515 303.25 42.275 303.249 43.0002Z" fill="#2563EA"/>
    <path d="M161.249 11.0002C161.242 13.81 160.156 16.5097 158.214 18.5407C156.272 20.5716 153.624 21.7784 150.817 21.9112C148.011 22.044 145.26 21.0927 143.136 19.2542C141.011 17.4156 139.674 14.8306 139.402 12.0339C139.13 9.23731 139.944 6.44317 141.675 4.22977C143.406 2.01637 145.921 0.553104 148.701 0.142795C151.481 -0.267514 154.312 0.406536 156.608 2.02546C158.905 3.64437 160.491 6.08424 161.039 8.84015C161.18 9.55146 161.25 10.275 161.249 11.0002Z" fill="#2563EA"/>
    <path d="M527.249 148C533.324 148 538.249 143.075 538.249 137C538.249 130.925 533.324 126 527.249 126C521.174 126 516.249 130.925 516.249 137C516.249 143.075 521.174 148 527.249 148Z" fill="#2563EA"/>
    <path d="M354.249 48C363.085 48 370.249 40.8366 370.249 32C370.249 23.1634 363.085 16 354.249 16C345.412 16 338.249 23.1634 338.249 32C338.249 40.8366 345.412 48 354.249 48Z" fill="#2563EA"/>
</svg>
