<svg width="25" height="24" viewBox="0 0 25 24" fill="none" xmlns="http://www.w3.org/2000/svg" fill="current">
<path fill-rule="evenodd" clip-rule="evenodd" d="M15.3902 5.59343C16.0764 4.79815 16.539 3.69048 16.4124 2.58838C15.4236 2.62603 14.2273 3.22005 13.5182 4.01439C12.8815 4.71932 12.3257 5.84569 12.4751 6.92616C13.5782 7.00803 14.7041 6.38965 15.3902 5.59343ZM17.8638 12.5884C17.8914 15.4373 20.4714 16.385 20.5 16.3972C20.4791 16.464 20.0879 17.7476 19.141 19.0746C18.3215 20.2209 17.4716 21.3626 16.1326 21.3871C14.8173 21.4106 14.3938 20.6399 12.8891 20.6399C11.3854 20.6399 10.9153 21.3625 9.67045 21.4105C8.37802 21.4567 7.39299 20.1703 6.56786 19.0277C4.87952 16.6908 3.58994 12.4238 5.32206 9.5438C6.18241 8.11417 7.71943 7.20748 9.38874 7.18489C10.6574 7.16136 11.8556 8.0029 12.6312 8.0029C13.4069 8.0029 14.863 6.99114 16.3934 7.13985C17.0339 7.16526 18.8326 7.3873 19.987 9.00704C19.8938 9.06257 17.8409 10.2072 17.8638 12.5884Z" />
</svg>
