<svg width="14" height="12" viewBox="0 0 14 12" fill="none" xmlns="http://www.w3.org/2000/svg">
<path fill-rule="evenodd" clip-rule="evenodd" d="M0.777778 0C1.20733 0 1.55556 0.33579 1.55556 0.75V5.68935L3.33891 3.96967C3.57564 3.7414 3.93728 3.68481 4.23672 3.82918L6.73369 5.0331L9.46392 1.08398C9.68154 0.76926 10.1081 0.660022 10.4589 0.829177L13.57 2.32918C13.8336 2.45622 14 2.71592 14 3V10.9524C14 11.3666 13.4296 12 13 12H1C0.570449 12 0 11.6071 0 10.9524V7.50015V0.75C0 0.33579 0.348227 0 0.777778 0ZM1.55556 7.81065V10.5H12.4444V3.46352L10.3774 2.46691L7.64719 6.41602C7.42957 6.73072 7.00303 6.84 6.65218 6.6708L4.04246 5.4126L1.55556 7.81065Z" fill="#374151"/>
</svg>
