<svg width="30" height="24" viewBox="0 0 30 24" fill="none" xmlns="http://www.w3.org/2000/svg">
    <g id="Group 1232">
        <path id="Vector" fill-rule="evenodd" clip-rule="evenodd"
              d="M29.0386 23.3797H14.2538C12.7115 23.3797 11.2861 22.629 10.514 21.4086L10.3214 21.1047L10.1289 20.7992C9.35679 19.5804 7.93141 18.828 6.38725 18.828H0.962891L3.84245 14.2764H9.26681C10.0389 14.2764 10.7804 14.4636 11.4265 14.8036C12.0726 15.1453 12.6233 15.6381 13.0084 16.2475L13.201 16.5514L13.3936 16.8569C14.1657 18.0774 15.591 18.828 17.1334 18.828H26.159L27.5988 21.1047L29.0386 23.3797Z"
              fill="url(#paint0_linear_6068_561)"/>
        <path id="Vector_2" fill-rule="evenodd" clip-rule="evenodd"
              d="M29.0367 23.3801L14.6407 0.620117L11.7617 5.17212L23.2795 23.3801H29.0367Z"
              fill="url(#paint1_linear_6068_561)"/>
        <path id="Vector_3" fill-rule="evenodd" clip-rule="evenodd"
              d="M17.5188 5.17179L16.079 7.44845L14.6392 9.7251L13.1994 12.0001L11.7597 14.2768L11.4267 14.8041C10.7806 14.464 10.0391 14.2768 9.26705 14.2768H3.92188C5.20868 14.2768 6.39649 13.6509 7.03899 12.6342L7.44033 12.0001L8.88011 9.7251L10.3199 7.44845L11.7597 5.17179L13.1994 2.89677L14.6392 0.620117L16.079 2.89677L17.5188 5.17179Z"
              fill="url(#paint2_linear_6068_561)"/>
    </g>
    <defs>
        <linearGradient id="paint0_linear_6068_561" x1="2808.53" y1="526.084" x2="1457.34" y2="243.631"
                        gradientUnits="userSpaceOnUse">
            <stop stop-color="#1C155C"/>
            <stop offset="1" stop-color="#014BFA"/>
        </linearGradient>
        <linearGradient id="paint1_linear_6068_561" x1="575.202" y1="0.620121" x2="964.124" y2="1083.5"
                        gradientUnits="userSpaceOnUse">
            <stop stop-color="#2563EA"/>
            <stop offset="1" stop-color="#014BFA"/>
        </linearGradient>
        <linearGradient id="paint2_linear_6068_561" x1="1142.13" y1="1711.27" x2="1142.13" y2="0.620117"
                        gradientUnits="userSpaceOnUse">
            <stop stop-color="#1C155C"/>
            <stop offset="0.39942" stop-color="#014BFA"/>
            <stop offset="0.997" stop-color="#014BFA"/>
            <stop offset="1" stop-color="#FD7810"/>
        </linearGradient>
    </defs>
</svg>
