<svg width="210" height="44" viewBox="0 0 300 76" fill="none" xmlns="http://www.w3.org/2000/svg">
<path fill-rule="evenodd" clip-rule="evenodd" d="M78 69.9993H36.925C32.64 69.9993 28.68 67.8884 26.535 64.4566L26 63.602L25.465 62.7429C23.32 59.3157 19.36 57.2002 15.07 57.2002H0L8 44.4011H23.07C25.215 44.4011 27.275 44.9277 29.07 45.8838C30.865 46.8445 32.395 48.2302 33.465 49.9438L34 50.7984L34.535 51.6575C36.68 55.0893 40.64 57.2002 44.925 57.2002H70L74 63.602L78 69.9993Z" fill="url(#paint0_linear_8612_49214)"/>
<path fill-rule="evenodd" clip-rule="evenodd" d="M77.9934 70L37.9985 6L30 18.8L61.9989 70H77.9934Z" fill="url(#paint1_linear_8612_49214)"/>
<path fill-rule="evenodd" clip-rule="evenodd" d="M45.9947 18.7991L41.9947 25.2009L37.9947 31.6028L33.9947 38L29.9947 44.4019L29.0697 45.8845C27.2747 44.9284 25.2147 44.4019 23.0697 44.4019H8.21973C11.7947 44.4019 15.0947 42.642 16.8797 39.7829L17.9947 38L21.9947 31.6028L25.9947 25.2009L29.9947 18.7991L33.9947 12.4018L37.9947 6L41.9947 12.4018L45.9947 18.7991Z" fill="url(#paint2_linear_8612_49214)"/>
<path d="M105.12 14.488C106.315 14.488 107.392 14.6853 108.352 15.08C109.323 15.464 110.144 16.024 110.816 16.76C111.499 17.4853 112.021 18.3653 112.384 19.4C112.747 20.424 112.928 21.576 112.928 22.856C112.928 24.136 112.747 25.2933 112.384 26.328C112.021 27.3627 111.499 28.2427 110.816 28.968C110.144 29.6933 109.323 30.2533 108.352 30.648C107.392 31.032 106.315 31.224 105.12 31.224C103.915 31.224 102.827 31.032 101.856 30.648C100.896 30.2533 100.075 29.6933 99.392 28.968C98.7093 28.2427 98.1813 27.3627 97.808 26.328C97.4453 25.2933 97.264 24.136 97.264 22.856C97.264 21.576 97.4453 20.424 97.808 19.4C98.1813 18.3653 98.7093 17.4853 99.392 16.76C100.075 16.024 100.896 15.464 101.856 15.08C102.827 14.6853 103.915 14.488 105.12 14.488ZM105.12 28.792C106.656 28.792 107.803 28.2747 108.56 27.24C109.317 26.2053 109.696 24.7493 109.696 22.872C109.696 20.9947 109.317 19.5387 108.56 18.504C107.803 17.4587 106.656 16.936 105.12 16.936C103.563 16.936 102.4 17.4587 101.632 18.504C100.875 19.5387 100.496 20.9947 100.496 22.872C100.496 24.7493 100.875 26.2053 101.632 27.24C102.4 28.2747 103.563 28.792 105.12 28.792ZM119.531 27C120.043 27.672 120.592 28.1413 121.179 28.408C121.776 28.6747 122.443 28.808 123.179 28.808C124.608 28.808 125.712 28.296 126.491 27.272C127.28 26.2373 127.675 24.7333 127.675 22.76C127.675 21.7253 127.584 20.8453 127.403 20.12C127.232 19.384 126.976 18.7867 126.635 18.328C126.304 17.8587 125.893 17.5173 125.403 17.304C124.912 17.08 124.357 16.968 123.739 16.968C122.832 16.968 122.043 17.1707 121.371 17.576C120.709 17.9813 120.096 18.5573 119.531 19.304V27ZM119.371 17.176C119.712 16.7707 120.075 16.4027 120.459 16.072C120.853 15.7307 121.275 15.4427 121.723 15.208C122.171 14.9627 122.645 14.776 123.147 14.648C123.659 14.5093 124.203 14.44 124.779 14.44C125.707 14.44 126.544 14.6213 127.291 14.984C128.048 15.3467 128.693 15.88 129.227 16.584C129.76 17.288 130.171 18.1573 130.459 19.192C130.757 20.2267 130.907 21.416 130.907 22.76C130.907 23.9653 130.741 25.0853 130.411 26.12C130.091 27.144 129.627 28.0347 129.019 28.792C128.421 29.5493 127.685 30.1467 126.811 30.584C125.947 31.0107 124.971 31.224 123.883 31.224C122.912 31.224 122.08 31.064 121.387 30.744C120.693 30.424 120.075 29.976 119.531 29.4V36.456H116.411V14.744H118.283C118.72 14.744 118.992 14.952 119.099 15.368L119.371 17.176ZM145.179 21.064C145.179 20.4453 145.088 19.8747 144.907 19.352C144.736 18.8293 144.48 18.376 144.139 17.992C143.797 17.608 143.381 17.3093 142.891 17.096C142.4 16.8827 141.835 16.776 141.195 16.776C139.883 16.776 138.848 17.1547 138.091 17.912C137.344 18.6693 136.869 19.72 136.667 21.064H145.179ZM147.755 28.68C147.371 29.128 146.928 29.5173 146.427 29.848C145.925 30.168 145.392 30.4293 144.827 30.632C144.261 30.8347 143.675 30.984 143.067 31.08C142.469 31.176 141.877 31.224 141.291 31.224C140.171 31.224 139.131 31.0373 138.171 30.664C137.221 30.28 136.395 29.7253 135.691 29C134.997 28.264 134.453 27.3573 134.059 26.28C133.675 25.192 133.483 23.944 133.483 22.536C133.483 21.4053 133.659 20.3547 134.011 19.384C134.363 18.4027 134.864 17.5493 135.515 16.824C136.176 16.0987 136.981 15.528 137.931 15.112C138.88 14.696 139.947 14.488 141.131 14.488C142.123 14.488 143.035 14.6533 143.867 14.984C144.709 15.304 145.435 15.7733 146.043 16.392C146.651 17.0107 147.125 17.7733 147.467 18.68C147.819 19.5867 147.995 20.6213 147.995 21.784C147.995 22.264 147.941 22.5893 147.835 22.76C147.728 22.92 147.531 23 147.243 23H136.587C136.619 23.9707 136.757 24.8187 137.003 25.544C137.248 26.2587 137.584 26.856 138.011 27.336C138.448 27.816 138.965 28.1733 139.563 28.408C140.16 28.6427 140.827 28.76 141.563 28.76C142.256 28.76 142.853 28.68 143.355 28.52C143.867 28.36 144.304 28.1893 144.667 28.008C145.04 27.816 145.349 27.64 145.595 27.48C145.851 27.32 146.075 27.24 146.267 27.24C146.523 27.24 146.72 27.336 146.859 27.528L147.755 28.68ZM154.276 17C154.628 16.6267 154.996 16.2853 155.38 15.976C155.764 15.6667 156.17 15.4053 156.596 15.192C157.034 14.968 157.498 14.7973 157.988 14.68C158.49 14.552 159.023 14.488 159.588 14.488C160.484 14.488 161.268 14.6373 161.94 14.936C162.623 15.2347 163.194 15.656 163.652 16.2C164.111 16.7333 164.458 17.3787 164.692 18.136C164.927 18.8933 165.044 19.7307 165.044 20.648V31H161.908V20.648C161.908 19.4853 161.642 18.584 161.108 17.944C160.575 17.2933 159.759 16.968 158.66 16.968C157.86 16.968 157.108 17.16 156.404 17.544C155.711 17.9173 155.066 18.4293 154.468 19.08V31H151.348V14.744H153.22C153.658 14.744 153.93 14.952 154.036 15.368L154.276 17ZM103.904 60.888C104.459 60.888 104.944 60.8133 105.36 60.664C105.787 60.5147 106.139 60.3067 106.416 60.04C106.704 59.7627 106.917 59.432 107.056 59.048C107.205 58.664 107.28 58.2427 107.28 57.784C107.28 56.8453 106.992 56.0987 106.416 55.544C105.851 54.9787 105.013 54.696 103.904 54.696C102.805 54.696 101.968 54.9787 101.392 55.544C100.827 56.0987 100.544 56.8453 100.544 57.784C100.544 58.2427 100.613 58.664 100.752 59.048C100.901 59.4213 101.115 59.7467 101.392 60.024C101.68 60.2907 102.032 60.504 102.448 60.664C102.875 60.8133 103.36 60.888 103.904 60.888ZM108.88 69.848C108.88 69.464 108.773 69.16 108.56 68.936C108.347 68.7013 108.053 68.52 107.68 68.392C107.317 68.2533 106.891 68.1573 106.4 68.104C105.909 68.04 105.392 67.992 104.848 67.96C104.315 67.928 103.765 67.9013 103.2 67.88C102.635 67.848 102.091 67.7947 101.568 67.72C101.013 67.9973 100.555 68.3333 100.192 68.728C99.84 69.1227 99.664 69.5867 99.664 70.12C99.664 70.4613 99.7493 70.7813 99.92 71.08C100.101 71.3787 100.373 71.6347 100.736 71.848C101.109 72.072 101.573 72.2427 102.128 72.36C102.693 72.488 103.365 72.552 104.144 72.552C104.912 72.552 105.589 72.4827 106.176 72.344C106.763 72.216 107.253 72.0293 107.648 71.784C108.053 71.5493 108.357 71.2667 108.56 70.936C108.773 70.6053 108.88 70.2427 108.88 69.848ZM112.048 53.352V54.52C112.048 54.904 111.808 55.144 111.328 55.24L109.584 55.496C109.733 55.8267 109.851 56.1787 109.936 56.552C110.021 56.9147 110.064 57.2987 110.064 57.704C110.064 58.504 109.909 59.2293 109.6 59.88C109.291 60.52 108.864 61.0693 108.32 61.528C107.776 61.9867 107.125 62.3387 106.368 62.584C105.621 62.8293 104.8 62.952 103.904 62.952C103.168 62.952 102.48 62.872 101.84 62.712C101.52 62.904 101.275 63.1173 101.104 63.352C100.944 63.576 100.864 63.8 100.864 64.024C100.864 64.3973 101.019 64.6747 101.328 64.856C101.648 65.0373 102.059 65.1707 102.56 65.256C103.072 65.3307 103.653 65.3787 104.304 65.4C104.965 65.4213 105.632 65.4587 106.304 65.512C106.987 65.5547 107.653 65.64 108.304 65.768C108.965 65.8853 109.547 66.0827 110.048 66.36C110.56 66.6267 110.971 67 111.28 67.48C111.6 67.9493 111.76 68.5627 111.76 69.32C111.76 70.024 111.584 70.7067 111.232 71.368C110.891 72.0293 110.389 72.616 109.728 73.128C109.067 73.64 108.261 74.0507 107.312 74.36C106.363 74.6693 105.285 74.824 104.08 74.824C102.875 74.824 101.824 74.7067 100.928 74.472C100.043 74.2373 99.3013 73.9227 98.704 73.528C98.1173 73.1333 97.6747 72.6747 97.376 72.152C97.088 71.6293 96.944 71.0853 96.944 70.52C96.944 69.7307 97.1893 69.064 97.68 68.52C98.1707 67.9653 98.848 67.5333 99.712 67.224C99.2427 67.0107 98.8693 66.7227 98.592 66.36C98.3147 65.9867 98.176 65.496 98.176 64.888C98.176 64.6533 98.2187 64.4133 98.304 64.168C98.3893 63.912 98.5173 63.6613 98.688 63.416C98.8693 63.16 99.088 62.92 99.344 62.696C99.6107 62.472 99.9147 62.2693 100.256 62.088C99.456 61.64 98.8267 61.048 98.368 60.312C97.9093 59.5653 97.68 58.696 97.68 57.704C97.68 56.904 97.8347 56.184 98.144 55.544C98.4533 54.904 98.88 54.3547 99.424 53.896C99.9787 53.4373 100.635 53.0853 101.392 52.84C102.16 52.5947 102.997 52.472 103.904 52.472C105.312 52.472 106.523 52.7653 107.536 53.352H112.048ZM121.589 52.488C122.783 52.488 123.861 52.6853 124.821 53.08C125.791 53.464 126.613 54.024 127.285 54.76C127.967 55.4853 128.49 56.3653 128.853 57.4C129.215 58.424 129.397 59.576 129.397 60.856C129.397 62.136 129.215 63.2933 128.853 64.328C128.49 65.3627 127.967 66.2427 127.285 66.968C126.613 67.6933 125.791 68.2533 124.821 68.648C123.861 69.032 122.783 69.224 121.589 69.224C120.383 69.224 119.295 69.032 118.325 68.648C117.365 68.2533 116.543 67.6933 115.861 66.968C115.178 66.2427 114.65 65.3627 114.277 64.328C113.914 63.2933 113.733 62.136 113.733 60.856C113.733 59.576 113.914 58.424 114.277 57.4C114.65 56.3653 115.178 55.4853 115.861 54.76C116.543 54.024 117.365 53.464 118.325 53.08C119.295 52.6853 120.383 52.488 121.589 52.488ZM121.589 66.792C123.125 66.792 124.271 66.2747 125.029 65.24C125.786 64.2053 126.165 62.7493 126.165 60.872C126.165 58.9947 125.786 57.5387 125.029 56.504C124.271 55.4587 123.125 54.936 121.589 54.936C120.031 54.936 118.869 55.4587 118.101 56.504C117.343 57.5387 116.965 58.9947 116.965 60.872C116.965 62.7493 117.343 64.2053 118.101 65.24C118.869 66.2747 120.031 66.792 121.589 66.792ZM146.523 52.744L139.931 69H137.115L130.523 52.744H133.099C133.344 52.744 133.547 52.8027 133.707 52.92C133.867 53.0373 133.973 53.1867 134.027 53.368L137.915 63.352C138.053 63.768 138.171 64.184 138.267 64.6C138.373 65.0053 138.469 65.4107 138.555 65.816C138.64 65.4107 138.736 65.0053 138.843 64.6C138.949 64.1947 139.077 63.7787 139.227 63.352L143.163 53.368C143.227 53.1867 143.339 53.0373 143.499 52.92C143.659 52.8027 143.851 52.744 144.075 52.744H146.523ZM159.304 59.064C159.304 58.4453 159.213 57.8747 159.032 57.352C158.861 56.8293 158.605 56.376 158.264 55.992C157.922 55.608 157.506 55.3093 157.016 55.096C156.525 54.8827 155.96 54.776 155.32 54.776C154.008 54.776 152.973 55.1547 152.216 55.912C151.469 56.6693 150.994 57.72 150.792 59.064H159.304ZM161.88 66.68C161.496 67.128 161.053 67.5173 160.552 67.848C160.05 68.168 159.517 68.4293 158.952 68.632C158.386 68.8347 157.8 68.984 157.192 69.08C156.594 69.176 156.002 69.224 155.416 69.224C154.296 69.224 153.256 69.0373 152.296 68.664C151.346 68.28 150.52 67.7253 149.816 67C149.122 66.264 148.578 65.3573 148.184 64.28C147.8 63.192 147.608 61.944 147.608 60.536C147.608 59.4053 147.784 58.3547 148.136 57.384C148.488 56.4027 148.989 55.5493 149.64 54.824C150.301 54.0987 151.106 53.528 152.056 53.112C153.005 52.696 154.072 52.488 155.256 52.488C156.248 52.488 157.16 52.6533 157.992 52.984C158.834 53.304 159.56 53.7733 160.168 54.392C160.776 55.0107 161.25 55.7733 161.592 56.68C161.944 57.5867 162.12 58.6213 162.12 59.784C162.12 60.264 162.066 60.5893 161.96 60.76C161.853 60.92 161.656 61 161.368 61H150.712C150.744 61.9707 150.882 62.8187 151.128 63.544C151.373 64.2587 151.709 64.856 152.136 65.336C152.573 65.816 153.09 66.1733 153.688 66.408C154.285 66.6427 154.952 66.76 155.688 66.76C156.381 66.76 156.978 66.68 157.48 66.52C157.992 66.36 158.429 66.1893 158.792 66.008C159.165 65.816 159.474 65.64 159.72 65.48C159.976 65.32 160.2 65.24 160.392 65.24C160.648 65.24 160.845 65.336 160.984 65.528L161.88 66.68ZM168.417 55.864C168.94 54.7973 169.569 53.96 170.305 53.352C171.041 52.744 171.927 52.44 172.961 52.44C173.313 52.44 173.644 52.4827 173.953 52.568C174.273 52.6427 174.551 52.76 174.785 52.92L174.577 55.272C174.503 55.56 174.327 55.704 174.049 55.704C173.9 55.704 173.676 55.6773 173.377 55.624C173.079 55.56 172.759 55.528 172.417 55.528C171.916 55.528 171.473 55.6027 171.089 55.752C170.705 55.8907 170.359 56.104 170.049 56.392C169.751 56.6693 169.484 57.016 169.249 57.432C169.015 57.8373 168.796 58.3013 168.593 58.824V69H165.473V52.744H167.265C167.607 52.744 167.836 52.808 167.953 52.936C168.081 53.0533 168.172 53.2667 168.225 53.576L168.417 55.864ZM180.12 55C180.472 54.6267 180.84 54.2853 181.224 53.976C181.608 53.6667 182.013 53.4053 182.44 53.192C182.877 52.968 183.341 52.7973 183.832 52.68C184.333 52.552 184.867 52.488 185.432 52.488C186.328 52.488 187.112 52.6373 187.784 52.936C188.467 53.2347 189.037 53.656 189.496 54.2C189.955 54.7333 190.301 55.3787 190.536 56.136C190.771 56.8933 190.888 57.7307 190.888 58.648V69H187.752V58.648C187.752 57.4853 187.485 56.584 186.952 55.944C186.419 55.2933 185.603 54.968 184.504 54.968C183.704 54.968 182.952 55.16 182.248 55.544C181.555 55.9173 180.909 56.4293 180.312 57.08V69H177.192V52.744H179.064C179.501 52.744 179.773 52.952 179.88 53.368L180.12 55ZM203.834 61.784C202.565 61.8267 201.488 61.928 200.602 62.088C199.717 62.2373 198.997 62.44 198.442 62.696C197.888 62.952 197.488 63.256 197.242 63.608C196.997 63.9493 196.874 64.3333 196.874 64.76C196.874 65.1653 196.938 65.5173 197.066 65.816C197.205 66.104 197.386 66.344 197.61 66.536C197.845 66.7173 198.117 66.8507 198.426 66.936C198.736 67.0213 199.072 67.064 199.434 67.064C199.914 67.064 200.352 67.016 200.746 66.92C201.152 66.824 201.53 66.6907 201.882 66.52C202.234 66.3387 202.57 66.12 202.89 65.864C203.21 65.608 203.525 65.3147 203.834 64.984V61.784ZM194.682 55.016C195.589 54.152 196.57 53.5067 197.626 53.08C198.693 52.6533 199.861 52.44 201.13 52.44C202.058 52.44 202.88 52.5947 203.594 52.904C204.309 53.2027 204.912 53.624 205.402 54.168C205.893 54.712 206.261 55.3627 206.506 56.12C206.762 56.8773 206.89 57.7147 206.89 58.632V69H205.498C205.189 69 204.954 68.952 204.794 68.856C204.634 68.7493 204.506 68.5573 204.41 68.28L204.074 66.856C203.658 67.24 203.248 67.5813 202.842 67.88C202.437 68.168 202.01 68.4187 201.562 68.632C201.125 68.8347 200.656 68.9893 200.154 69.096C199.653 69.2027 199.098 69.256 198.49 69.256C197.85 69.256 197.248 69.1707 196.682 69C196.128 68.8187 195.642 68.5467 195.226 68.184C194.81 67.8213 194.48 67.368 194.234 66.824C194 66.28 193.882 65.6453 193.882 64.92C193.882 64.28 194.053 63.6667 194.394 63.08C194.746 62.4827 195.312 61.9493 196.09 61.48C196.88 61.0107 197.904 60.6267 199.162 60.328C200.432 60.0293 201.989 59.8587 203.834 59.816V58.632C203.834 57.4053 203.573 56.488 203.05 55.88C202.528 55.272 201.76 54.968 200.746 54.968C200.064 54.968 199.488 55.0533 199.018 55.224C198.56 55.3947 198.16 55.5867 197.818 55.8C197.488 56.0027 197.194 56.1893 196.938 56.36C196.693 56.5307 196.437 56.616 196.17 56.616C195.957 56.616 195.77 56.5573 195.61 56.44C195.461 56.3227 195.338 56.184 195.242 56.024L194.682 55.016ZM213.995 55C214.347 54.6267 214.715 54.2853 215.099 53.976C215.483 53.6667 215.888 53.4053 216.315 53.192C216.752 52.968 217.216 52.7973 217.707 52.68C218.208 52.552 218.742 52.488 219.307 52.488C220.203 52.488 220.987 52.6373 221.659 52.936C222.342 53.2347 222.912 53.656 223.371 54.2C223.83 54.7333 224.176 55.3787 224.411 56.136C224.646 56.8933 224.763 57.7307 224.763 58.648V69H221.627V58.648C221.627 57.4853 221.36 56.584 220.827 55.944C220.294 55.2933 219.478 54.968 218.379 54.968C217.579 54.968 216.827 55.16 216.123 55.544C215.43 55.9173 214.784 56.4293 214.187 57.08V69H211.067V52.744H212.939C213.376 52.744 213.648 52.952 213.755 53.368L213.995 55ZM240.365 55.784C240.269 55.9013 240.173 55.9973 240.077 56.072C239.992 56.136 239.864 56.168 239.693 56.168C239.523 56.168 239.341 56.104 239.149 55.976C238.968 55.8373 238.733 55.6933 238.445 55.544C238.168 55.384 237.827 55.24 237.421 55.112C237.027 54.9733 236.536 54.904 235.949 54.904C235.181 54.904 234.504 55.0427 233.917 55.32C233.331 55.5973 232.84 55.992 232.445 56.504C232.061 57.016 231.768 57.64 231.565 58.376C231.363 59.112 231.261 59.9387 231.261 60.856C231.261 61.8053 231.368 62.6533 231.581 63.4C231.795 64.136 232.099 64.76 232.493 65.272C232.888 65.7733 233.368 66.1573 233.933 66.424C234.499 66.68 235.128 66.808 235.821 66.808C236.493 66.808 237.048 66.728 237.485 66.568C237.923 66.3973 238.285 66.216 238.573 66.024C238.861 65.832 239.101 65.656 239.293 65.496C239.485 65.3253 239.683 65.24 239.885 65.24C240.141 65.24 240.339 65.336 240.477 65.528L241.373 66.68C241 67.1387 240.579 67.528 240.109 67.848C239.651 68.168 239.16 68.4293 238.637 68.632C238.115 68.8347 237.565 68.984 236.989 69.08C236.424 69.176 235.848 69.224 235.261 69.224C234.248 69.224 233.299 69.0373 232.413 68.664C231.539 68.2907 230.776 67.7467 230.125 67.032C229.485 66.3173 228.979 65.4427 228.605 64.408C228.232 63.3627 228.045 62.1787 228.045 60.856C228.045 59.6507 228.211 58.536 228.541 57.512C228.883 56.488 229.379 55.608 230.029 54.872C230.691 54.1253 231.501 53.544 232.461 53.128C233.421 52.7013 234.52 52.488 235.757 52.488C236.92 52.488 237.944 52.6747 238.829 53.048C239.715 53.4213 240.504 53.9493 241.197 54.632L240.365 55.784ZM254.773 59.064C254.773 58.4453 254.682 57.8747 254.501 57.352C254.33 56.8293 254.074 56.376 253.733 55.992C253.391 55.608 252.975 55.3093 252.485 55.096C251.994 54.8827 251.429 54.776 250.789 54.776C249.477 54.776 248.442 55.1547 247.685 55.912C246.938 56.6693 246.463 57.72 246.261 59.064H254.773ZM257.349 66.68C256.965 67.128 256.522 67.5173 256.021 67.848C255.519 68.168 254.986 68.4293 254.421 68.632C253.855 68.8347 253.269 68.984 252.661 69.08C252.063 69.176 251.471 69.224 250.885 69.224C249.765 69.224 248.725 69.0373 247.765 68.664C246.815 68.28 245.989 67.7253 245.285 67C244.591 66.264 244.047 65.3573 243.653 64.28C243.269 63.192 243.077 61.944 243.077 60.536C243.077 59.4053 243.253 58.3547 243.605 57.384C243.957 56.4027 244.458 55.5493 245.109 54.824C245.77 54.0987 246.575 53.528 247.525 53.112C248.474 52.696 249.541 52.488 250.725 52.488C251.717 52.488 252.629 52.6533 253.461 52.984C254.303 53.304 255.029 53.7733 255.637 54.392C256.245 55.0107 256.719 55.7733 257.061 56.68C257.413 57.5867 257.589 58.6213 257.589 59.784C257.589 60.264 257.535 60.5893 257.429 60.76C257.322 60.92 257.125 61 256.837 61H246.181C246.213 61.9707 246.351 62.8187 246.597 63.544C246.842 64.2587 247.178 64.856 247.605 65.336C248.042 65.816 248.559 66.1733 249.157 66.408C249.754 66.6427 250.421 66.76 251.157 66.76C251.85 66.76 252.447 66.68 252.949 66.52C253.461 66.36 253.898 66.1893 254.261 66.008C254.634 65.816 254.943 65.64 255.189 65.48C255.445 65.32 255.669 65.24 255.861 65.24C256.117 65.24 256.314 65.336 256.453 65.528L257.349 66.68Z" fill="#fff"/>
<defs>
<linearGradient id="paint0_linear_8612_49214" x1="7800" y1="1483.58" x2="4042.37" y2="707.509" gradientUnits="userSpaceOnUse">
<stop stop-color="#fff"/>
<stop offset="1" stop-color="#014BFA"/>
</linearGradient>
<linearGradient id="paint1_linear_8612_49214" x1="1595.35" y1="6.00001" x2="2699.18" y2="3042.53" gradientUnits="userSpaceOnUse">
<stop stop-color="#2563EA"/>
<stop offset="1" stop-color="#014BFA"/>
</linearGradient>
<linearGradient id="paint2_linear_8612_49214" x1="3170.4" y1="4816.27" x2="3170.4" y2="6" gradientUnits="userSpaceOnUse">
<stop stop-color="#1C155C"/>
<stop offset="0.39942" stop-color="#014BFA"/>
<stop offset="0.9999" stop-color="#014BFA"/>
<stop offset="1" stop-color="#FD7810"/>
</linearGradient>
</defs>
</svg>