
<svg xmlns="http://www.w3.org/2000/svg" xmlns:xlink="http://www.w3.org/1999/xlink" width="160px" height="27px" viewBox="0 0 120 27" version="1.1">
<g id="surface1">
<path style=" stroke:none;fill-rule:nonzero;fill:rgb(38.82353%,40.000001%,94.509804%);fill-opacity:1;" d="M 14.078125 21.777344 C 13.984375 21.660156 13.894531 21.734375 13.894531 21.660156 C 13.328125 21.804688 12.273438 21.425781 11.828125 21.472656 C 11.925781 21.332031 11.6875 21.355469 11.6875 21.261719 C 11.597656 21.402344 11.503906 21.261719 11.359375 21.308594 C 11.222656 20.953125 10.65625 21.214844 10.589844 20.765625 C 10.261719 20.765625 10.144531 20.578125 9.8125 20.390625 C 9.839844 20.363281 9.859375 20.363281 9.886719 20.34375 C 9.722656 20.316406 9.722656 20.226562 9.582031 20.226562 L 9.628906 20.128906 C 9.367188 20.082031 9.273438 19.683594 8.898438 19.539062 C 8.78125 19.519531 8.523438 19.113281 8.386719 19.023438 C 8.316406 18.976562 8.195312 18.976562 8.359375 18.949219 C 8.339844 18.929688 8.339844 18.878906 8.359375 18.855469 C 8.195312 18.8125 8.175781 18.667969 7.964844 18.597656 C 7.941406 18.523438 8.011719 18.480469 7.964844 18.433594 C 7.917969 18.40625 7.847656 18.457031 7.800781 18.433594 C 7.773438 18.855469 8.242188 18.902344 8.386719 19.257812 C 8.339844 19.210938 8.269531 19.066406 8.222656 19.164062 C 8.195312 19.234375 8.40625 19.492188 8.40625 19.351562 C 8.339844 19.398438 8.316406 19.28125 8.359375 19.257812 C 8.433594 19.375 8.570312 19.351562 8.570312 19.445312 C 8.503906 19.519531 8.40625 19.375 8.433594 19.492188 C 8.644531 19.609375 8.617188 19.730469 8.734375 19.894531 C 8.644531 19.777344 8.617188 19.988281 8.523438 19.894531 C 8.503906 19.539062 8.105469 19.609375 8.105469 19.257812 C 8.058594 19.140625 8.011719 19.234375 7.941406 19.1875 C 8.03125 19.09375 7.65625 18.761719 7.65625 18.878906 C 7.542969 18.738281 7.609375 18.691406 7.589844 18.597656 C 7.496094 18.574219 7.566406 18.691406 7.496094 18.621094 C 7.589844 18.457031 7.378906 18.242188 7.234375 18.078125 L 7.332031 18.03125 C 7.167969 17.9375 7.144531 17.746094 7.023438 17.535156 C 6.886719 17.746094 7.308594 18.222656 7.234375 18.3125 C 7.234375 18.339844 7.398438 18.523438 7.445312 18.621094 C 7.636719 18.949219 7.773438 19.351562 8.03125 19.539062 C 7.984375 19.519531 8.011719 19.375 8.082031 19.445312 C 8.082031 19.519531 8.03125 19.585938 8.03125 19.65625 C 8.175781 19.800781 8.292969 19.917969 8.433594 20.058594 C 8.128906 19.871094 7.820312 19.683594 7.609375 19.398438 C 7.730469 19.375 7.847656 19.585938 7.941406 19.566406 C 7.707031 19.375 7.773438 19.304688 7.683594 19.066406 C 7.589844 18.996094 7.707031 19.164062 7.609375 19.1875 C 7.308594 18.902344 7.070312 18.738281 6.933594 18.480469 C 6.957031 18.457031 6.980469 18.433594 6.980469 18.386719 C 6.957031 18.359375 6.957031 18.359375 6.933594 18.339844 C 7.070312 18.480469 7.121094 18.597656 7.28125 18.621094 C 7.214844 18.550781 7.28125 18.523438 7.191406 18.457031 C 7.144531 18.359375 7.070312 18.503906 7.023438 18.433594 C 7.070312 18.359375 7.023438 18.269531 7.023438 18.195312 C 6.980469 18.195312 6.933594 18.195312 6.90625 18.125 C 6.859375 18.101562 6.839844 18.125 6.816406 18.171875 C 6.792969 18.148438 6.792969 18.101562 6.769531 18.078125 C 6.769531 18.078125 6.769531 18.054688 6.769531 18.054688 C 6.746094 18.03125 6.722656 17.980469 6.695312 17.960938 C 6.511719 17.464844 6.394531 16.804688 6.136719 16.382812 C 6.207031 16.097656 6.089844 15.53125 6.019531 15.390625 C 6.089844 15.269531 6.042969 14.730469 5.996094 14.636719 C 5.878906 14.683594 6.019531 14.941406 5.902344 15.015625 C 5.785156 14.496094 5.972656 13.902344 5.925781 13.433594 C 5.972656 13.433594 6.019531 13.433594 6.019531 13.410156 C 5.945312 13.339844 6.066406 13.195312 6.042969 13.03125 C 6.136719 12.820312 5.832031 13.339844 5.832031 13.550781 C 5.808594 13.597656 5.714844 13.550781 5.734375 13.667969 C 5.734375 13.835938 5.785156 14.164062 5.691406 14.398438 C 5.644531 14.398438 5.644531 14.351562 5.597656 14.378906 C 5.570312 14.496094 5.550781 14.636719 5.527344 14.753906 C 5.503906 14.707031 5.480469 14.636719 5.480469 14.613281 C 5.359375 14.019531 5.480469 13.339844 5.433594 12.84375 C 5.527344 12.84375 5.527344 12.703125 5.597656 12.65625 C 5.570312 12.84375 5.527344 13.078125 5.644531 13.128906 C 5.734375 12.207031 5.925781 11.191406 6.347656 10.203125 C 6.648438 9.46875 7.097656 8.742188 7.636719 8.152344 C 7.683594 8.222656 7.609375 8.386719 7.636719 8.460938 C 8.105469 7.964844 8.40625 7.375 8.925781 7.042969 C 8.945312 7.164062 8.714844 7.253906 8.714844 7.347656 C 8.925781 7.136719 8.992188 7.210938 9.230469 7.136719 C 9.300781 7.042969 9.136719 7.136719 9.109375 7.042969 C 9.253906 6.949219 9.347656 6.832031 9.4375 6.757812 C 9.4375 6.785156 9.417969 6.785156 9.417969 6.808594 C 9.675781 6.738281 9.695312 6.59375 9.886719 6.546875 C 9.859375 6.523438 9.8125 6.5 9.742188 6.523438 C 9.792969 6.5 9.859375 6.453125 9.933594 6.429688 C 9.90625 6.429688 9.90625 6.453125 9.886719 6.453125 C 10.023438 6.382812 9.90625 6.476562 9.90625 6.523438 C 9.933594 6.523438 9.957031 6.5 9.957031 6.5 C 9.8125 6.59375 9.722656 6.640625 9.675781 6.808594 C 9.742188 6.757812 9.769531 6.808594 9.859375 6.738281 C 9.957031 6.691406 9.839844 6.621094 9.90625 6.570312 C 9.980469 6.621094 10.070312 6.59375 10.144531 6.59375 C 10.144531 6.546875 10.167969 6.5 10.214844 6.476562 C 10.234375 6.429688 10.214844 6.40625 10.1875 6.40625 C 10.214844 6.382812 10.234375 6.382812 10.28125 6.359375 C 10.28125 6.359375 10.308594 6.359375 10.308594 6.382812 C 10.703125 6.195312 11.148438 6.03125 11.570312 5.886719 C 11.828125 5.863281 12.15625 5.863281 12.300781 5.699219 C 12.253906 5.699219 12.203125 5.722656 12.183594 5.699219 C 12.203125 5.699219 12.253906 5.675781 12.273438 5.675781 C 12.320312 5.722656 12.394531 5.675781 12.320312 5.769531 C 12.347656 5.769531 12.347656 5.769531 12.367188 5.746094 C 12.367188 5.769531 12.367188 5.769531 12.394531 5.792969 C 12.414062 5.792969 12.4375 5.769531 12.464844 5.722656 C 12.484375 5.722656 12.511719 5.722656 12.53125 5.699219 C 12.53125 5.699219 12.511719 5.722656 12.511719 5.722656 C 12.695312 5.675781 12.859375 5.699219 13.117188 5.652344 C 13.117188 5.628906 13.117188 5.605469 13.117188 5.582031 C 13.164062 5.582031 13.1875 5.558594 13.234375 5.558594 C 13.234375 5.558594 13.234375 5.582031 13.234375 5.582031 C 13.328125 5.535156 13.425781 5.628906 13.425781 5.582031 C 13.445312 5.582031 13.445312 5.582031 13.472656 5.582031 C 13.472656 5.628906 13.445312 5.652344 13.445312 5.675781 C 13.5625 5.675781 13.636719 5.675781 13.683594 5.605469 C 13.65625 5.582031 13.636719 5.582031 13.609375 5.582031 C 13.65625 5.582031 13.703125 5.558594 13.753906 5.535156 C 13.820312 5.558594 13.847656 5.582031 13.847656 5.675781 C 13.964844 5.460938 14.339844 5.722656 14.5 5.675781 C 14.570312 5.675781 14.550781 5.582031 14.597656 5.535156 C 14.617188 5.535156 14.640625 5.535156 14.664062 5.535156 C 14.78125 5.628906 14.945312 5.722656 15.15625 5.746094 C 14.972656 5.699219 15.183594 5.675781 15.203125 5.652344 C 15.15625 5.652344 15.15625 5.628906 15.15625 5.605469 C 15.226562 5.605469 15.300781 5.628906 15.367188 5.628906 C 15.367188 5.675781 15.390625 5.699219 15.4375 5.699219 C 15.484375 5.699219 15.484375 5.675781 15.484375 5.628906 C 15.558594 5.628906 15.601562 5.628906 15.675781 5.652344 C 15.648438 5.746094 15.789062 5.769531 15.839844 5.839844 C 15.648438 5.792969 15.4375 5.722656 15.367188 5.839844 C 16.117188 6.003906 16.9375 6.242188 17.734375 6.640625 C 17.734375 6.640625 17.734375 6.640625 17.734375 6.667969 C 17.734375 6.667969 17.761719 6.667969 17.761719 6.667969 C 17.898438 6.738281 18.039062 6.808594 18.179688 6.878906 C 18.273438 6.925781 18.347656 6.972656 18.4375 7.042969 C 18.4375 7.066406 18.4375 7.089844 18.484375 7.089844 C 18.484375 7.089844 18.511719 7.089844 18.511719 7.089844 C 18.601562 7.164062 18.695312 7.210938 18.789062 7.28125 C 18.886719 7.421875 18.976562 7.609375 19.140625 7.5625 C 19.492188 8.105469 19.867188 8.316406 20.171875 8.882812 C 20.195312 8.789062 20.265625 9.09375 20.382812 9.117188 C 20.195312 9.09375 20.5 9.234375 20.3125 9.214844 C 20.476562 9.378906 20.523438 9.449219 20.546875 9.636719 C 20.5 9.542969 20.476562 9.519531 20.453125 9.613281 C 20.429688 9.753906 20.617188 9.589844 20.6875 9.730469 C 20.546875 9.730469 20.59375 9.824219 20.617188 9.941406 C 20.6875 9.875 20.664062 9.800781 20.734375 9.824219 C 20.828125 9.921875 20.6875 9.941406 20.710938 10.011719 C 20.78125 9.921875 20.804688 9.964844 20.898438 10.011719 C 20.78125 10.039062 20.96875 10.203125 20.828125 10.132812 C 20.921875 10.25 20.945312 10.320312 20.898438 10.4375 C 20.804688 10.296875 20.875 10.203125 20.734375 10.226562 C 21.015625 10.464844 20.875 11.007812 21.203125 11.050781 C 20.992188 11.097656 21.203125 11.191406 21.085938 11.21875 C 21.226562 11.261719 21.15625 11.453125 21.320312 11.5 C 21.296875 11.617188 21.25 11.6875 21.226562 11.804688 C 21.296875 11.898438 21.320312 12.089844 21.4375 12.113281 C 21.367188 12.183594 21.414062 12.371094 21.34375 12.441406 C 21.4375 12.394531 21.484375 12.394531 21.554688 12.488281 C 21.4375 12.585938 21.53125 12.679688 21.460938 12.703125 C 21.671875 13.246094 21.414062 14.351562 21.53125 14.777344 C 21.390625 14.707031 21.4375 14.941406 21.34375 14.941406 C 21.507812 15.015625 21.367188 15.132812 21.4375 15.25 C 21.109375 15.4375 21.4375 15.957031 20.992188 16.074219 C 21.039062 16.402344 20.851562 16.546875 20.710938 16.898438 C 20.6875 16.875 20.6875 16.851562 20.664062 16.828125 C 20.640625 16.992188 20.546875 17.019531 20.59375 17.15625 L 20.5 17.109375 C 20.5 17.371094 20.101562 17.511719 20.011719 17.914062 C 19.984375 18.03125 19.636719 18.339844 19.539062 18.503906 C 19.492188 18.574219 19.515625 18.691406 19.472656 18.523438 C 19.445312 18.550781 19.398438 18.550781 19.375 18.550781 C 19.351562 18.714844 19.210938 18.761719 19.164062 18.976562 C 19.117188 18.996094 19.046875 18.929688 19 18.996094 C 19 19.046875 19.046875 19.113281 19.023438 19.164062 C 19.445312 19.140625 19.445312 18.644531 19.773438 18.480469 C 19.75 18.550781 19.609375 18.621094 19.703125 18.667969 C 19.773438 18.667969 19.984375 18.433594 19.867188 18.457031 C 19.9375 18.503906 19.796875 18.550781 19.773438 18.523438 C 19.890625 18.433594 19.847656 18.3125 19.9375 18.289062 C 20.011719 18.339844 19.867188 18.457031 20.011719 18.433594 C 20.101562 18.222656 20.21875 18.195312 20.359375 18.078125 C 20.265625 18.171875 20.476562 18.195312 20.382812 18.289062 C 20.03125 18.359375 20.148438 18.761719 19.796875 18.8125 C 19.703125 18.878906 19.773438 18.902344 19.75 18.976562 C 19.636719 18.902344 19.375 19.304688 19.472656 19.28125 C 19.351562 19.398438 19.28125 19.351562 19.1875 19.375 C 19.164062 19.46875 19.28125 19.398438 19.234375 19.46875 C 19.070312 19.398438 18.859375 19.636719 18.722656 19.800781 L 18.648438 19.730469 C 18.578125 19.917969 18.390625 19.941406 18.179688 20.082031 C 18.414062 20.199219 18.8125 19.703125 18.929688 19.777344 C 18.953125 19.777344 19.140625 19.585938 19.210938 19.519531 C 19.515625 19.28125 19.890625 19.09375 20.03125 18.832031 C 20.011719 18.878906 19.867188 18.878906 19.9375 18.8125 C 20.011719 18.785156 20.078125 18.832031 20.148438 18.832031 C 20.523438 18.3125 20.992188 17.890625 21.34375 17.273438 C 21.367188 17.253906 21.390625 17.207031 21.414062 17.15625 C 21.367188 17.300781 21.296875 17.417969 21.25 17.558594 C 20.875 17.816406 20.734375 18.574219 20.289062 18.691406 C 20.3125 18.949219 20.078125 19.023438 19.960938 19.328125 C 19.890625 19.421875 19.847656 19.257812 19.773438 19.375 C 19.847656 19.703125 19.1875 19.683594 19.210938 19.988281 C 19.164062 20.011719 19.097656 20.035156 19.046875 20.082031 C 19.046875 20.082031 19.023438 20.082031 19.023438 20.082031 C 19 20.105469 19 20.105469 18.976562 20.128906 C 18.859375 20.199219 18.765625 20.273438 18.671875 20.34375 C 18.347656 20.527344 17.898438 20.671875 17.550781 20.859375 C 17.550781 20.859375 17.550781 20.835938 17.550781 20.835938 C 17.453125 20.882812 17.335938 20.859375 17.359375 20.953125 C 17.289062 21 17.222656 21.050781 17.148438 21.097656 C 17.125 21.097656 17.125 21.097656 17.101562 21.097656 C 17.101562 21.097656 17.078125 21.070312 17.058594 21.070312 C 17.011719 21.070312 17.011719 21.070312 16.984375 21.097656 C 16.683594 21.117188 16.28125 21.261719 16.164062 21.355469 C 16.050781 21.285156 15.511719 21.402344 15.414062 21.449219 C 15.464844 21.523438 15.601562 21.449219 15.722656 21.449219 C 15.648438 21.472656 15.578125 21.496094 15.558594 21.542969 C 15.53125 21.542969 15.53125 21.542969 15.511719 21.542969 C 15.484375 21.472656 15.414062 21.542969 15.390625 21.523438 C 15.390625 21.523438 15.414062 21.523438 15.414062 21.523438 C 15.390625 21.425781 15.320312 21.378906 15.203125 21.402344 C 15.203125 21.449219 15.203125 21.472656 15.183594 21.523438 C 15.226562 21.523438 15.367188 21.449219 15.367188 21.523438 C 15.347656 21.523438 15.347656 21.542969 15.367188 21.542969 C 15.320312 21.589844 15.25 21.589844 15.203125 21.613281 C 15.109375 21.613281 14.992188 21.613281 14.898438 21.613281 C 14.875 21.589844 14.851562 21.589844 14.808594 21.566406 C 14.78125 21.589844 14.734375 21.589844 14.714844 21.613281 C 14.570312 21.613281 14.40625 21.640625 14.289062 21.660156 C 14.289062 21.613281 14.289062 21.566406 14.242188 21.566406 C 14.175781 21.660156 14.03125 21.542969 13.867188 21.589844 C 13.703125 21.542969 13.964844 21.660156 14.195312 21.707031 C 14.175781 21.734375 14.148438 21.757812 14.078125 21.777344 M 10.800781 22.109375 C 10.472656 21.804688 9.792969 21.660156 9.675781 21.425781 C 9.484375 21.402344 9.207031 21.050781 8.972656 21 C 9.089844 21 8.992188 20.933594 8.972656 20.882812 C 8.925781 20.933594 8.878906 20.953125 8.832031 20.953125 C 8.832031 20.765625 8.644531 20.648438 8.480469 20.527344 C 8.597656 20.601562 8.691406 20.648438 8.832031 20.671875 C 8.832031 20.625 8.832031 20.578125 8.878906 20.578125 C 9.042969 20.742188 9.230469 20.90625 9.4375 21.070312 C 9.722656 21.332031 11.175781 21.992188 11.433594 22.109375 C 11.433594 22.109375 11.386719 22.203125 11.40625 22.203125 C 11.523438 22.277344 11.617188 22.132812 11.644531 22.300781 C 11.269531 22.347656 11.128906 22.085938 10.800781 22.109375 M 21.601562 16.640625 C 21.601562 16.640625 21.601562 16.664062 21.601562 16.664062 C 21.578125 16.664062 21.601562 16.640625 21.601562 16.640625 M 12.136719 5.722656 C 12.109375 5.746094 12.089844 5.746094 12.089844 5.746094 C 12.089844 5.722656 12.109375 5.722656 12.136719 5.722656 M 11.6875 5.839844 C 11.6875 5.863281 11.6875 5.863281 11.6875 5.839844 C 11.6875 5.863281 11.6875 5.863281 11.6875 5.839844 C 11.6875 5.863281 11.6875 5.839844 11.6875 5.839844 M 10.144531 6.335938 C 10.167969 6.3125 10.167969 6.3125 10.1875 6.3125 C 10.167969 6.3125 10.144531 6.335938 10.144531 6.335938 M 13.894531 5.558594 C 13.847656 5.558594 13.820312 5.558594 13.800781 5.535156 C 13.820312 5.535156 13.847656 5.535156 13.867188 5.535156 C 13.867188 5.535156 13.894531 5.535156 13.894531 5.535156 C 13.894531 5.535156 13.894531 5.535156 13.894531 5.558594 M 14.3125 5.605469 C 14.289062 5.582031 14.222656 5.558594 14.148438 5.558594 C 14.148438 5.535156 14.175781 5.507812 14.175781 5.507812 C 14.195312 5.507812 14.222656 5.507812 14.242188 5.507812 C 14.242188 5.507812 14.269531 5.507812 14.269531 5.535156 C 14.269531 5.535156 14.269531 5.535156 14.269531 5.507812 C 14.289062 5.507812 14.289062 5.507812 14.3125 5.507812 C 14.339844 5.558594 14.359375 5.582031 14.3125 5.605469 M 15.089844 5.675781 C 14.972656 5.699219 14.898438 5.652344 14.78125 5.582031 C 14.851562 5.582031 14.945312 5.605469 15.015625 5.628906 C 15.039062 5.628906 15.0625 5.652344 15.089844 5.675781 M 23.429688 9.023438 C 23.382812 9.046875 23.359375 9.046875 23.3125 8.953125 C 22.9375 8.152344 22.257812 6.996094 21.273438 6.03125 C 20.3125 5.039062 19.023438 4.238281 17.851562 3.8125 C 17.925781 3.835938 18.015625 3.882812 17.972656 3.929688 C 16.9375 3.53125 15.953125 3.292969 15.015625 3.203125 C 12.484375 2.796875 9.839844 3.339844 7.800781 4.664062 C 7.820312 4.707031 7.820312 4.734375 7.753906 4.78125 C 7.003906 5.25 5.945312 6.078125 5.105469 7.164062 C 4.261719 8.246094 3.605469 9.613281 3.324219 10.839844 C 3.347656 10.769531 3.371094 10.652344 3.417969 10.699219 C 2.808594 13.128906 2.972656 15.203125 3.816406 16.992188 C 3.859375 16.945312 3.699219 16.710938 3.839844 16.734375 C 3.933594 16.992188 4.050781 17.273438 4.191406 17.535156 C 4.355469 17.914062 4.542969 18.40625 4.800781 18.523438 C 4.144531 17.230469 3.699219 15.742188 3.652344 14.425781 C 3.746094 14.613281 3.722656 15.015625 3.859375 15.179688 C 3.910156 14.28125 3.699219 13.078125 4.003906 12.230469 C 3.933594 12.679688 3.886719 13.292969 3.933594 13.902344 C 3.933594 14.351562 4.144531 15.601562 4.285156 15.722656 C 4.261719 15.695312 4.261719 15.578125 4.285156 15.578125 C 4.355469 15.722656 4.191406 15.792969 4.308594 15.8125 C 4.308594 15.769531 4.332031 15.769531 4.355469 15.769531 C 4.589844 16.285156 4.894531 17.089844 5.128906 17.488281 C 5.410156 18.007812 5.785156 18.480469 6.207031 18.902344 C 6.207031 18.929688 6.230469 18.929688 6.230469 18.949219 C 6.273438 19.066406 6.441406 19.210938 6.484375 19.304688 C 6.511719 19.351562 6.464844 19.421875 6.484375 19.46875 C 6.839844 20.128906 7.355469 20.789062 7.984375 21.308594 C 8.386719 21.777344 9.019531 22.277344 9.792969 22.699219 C 10.542969 23.101562 11.40625 23.429688 12.203125 23.617188 C 12.769531 23.761719 13.445312 23.785156 13.867188 23.878906 C 14.433594 23.996094 15.414062 23.832031 15.90625 23.738281 C 18.859375 23.289062 21.789062 21.261719 23.265625 18.339844 C 24.789062 15.390625 24.742188 11.78125 23.429688 9.023438 "/>
<path style=" stroke:none;fill-rule:nonzero;fill:rgb(100%,100%,100%);fill-opacity:1;" d="M 34.433594 17.347656 C 32.15625 17.347656 30.515625 15.949219 30.515625 13.597656 C 30.515625 11.261719 32.140625 9.863281 34.433594 9.863281 C 36.738281 9.863281 38.359375 11.261719 38.359375 13.597656 C 38.359375 15.949219 36.730469 17.347656 34.433594 17.347656 Z M 34.410156 15.742188 C 35.574219 15.742188 36.371094 14.886719 36.371094 13.597656 C 36.371094 12.308594 35.574219 11.457031 34.410156 11.457031 C 33.292969 11.457031 32.503906 12.308594 32.503906 13.597656 C 32.503906 14.886719 33.292969 15.742188 34.410156 15.742188 Z M 44.046875 9.863281 C 45.933594 9.863281 47.492188 11.261719 47.492188 13.621094 C 47.492188 15.980469 45.933594 17.375 44.046875 17.375 C 43.113281 17.375 42.277344 17.007812 41.855469 16.351562 L 41.855469 20.710938 L 39.847656 20.710938 L 39.847656 10.007812 L 41.75 10.007812 L 41.804688 10.972656 C 42.203125 10.257812 43.074219 9.863281 44.046875 9.863281 Z M 43.59375 15.699219 C 44.644531 15.699219 45.488281 14.929688 45.488281 13.621094 C 45.488281 12.308594 44.644531 11.539062 43.59375 11.539062 C 42.519531 11.539062 41.6875 12.359375 41.6875 13.621094 C 41.6875 14.878906 42.519531 15.699219 43.59375 15.699219 Z M 55.730469 13.5 L 55.710938 13.984375 L 50.40625 13.984375 C 50.492188 15.179688 51.285156 15.753906 52.238281 15.753906 C 52.953125 15.753906 53.511719 15.421875 53.78125 14.78125 L 55.621094 15.054688 C 55.144531 16.511719 53.859375 17.347656 52.25 17.347656 C 49.941406 17.347656 48.429688 15.972656 48.429688 13.605469 C 48.429688 11.238281 49.984375 9.851562 52.191406 9.851562 C 54.214844 9.851562 55.726562 10.976562 55.730469 13.5 Z M 52.203125 11.277344 C 51.289062 11.277344 50.660156 11.707031 50.464844 12.667969 L 53.75 12.667969 C 53.644531 11.75 53.027344 11.277344 52.203125 11.277344 Z M 61.480469 9.863281 C 63.199219 9.863281 64.148438 10.761719 64.148438 12.359375 L 64.148438 17.207031 L 62.136719 17.207031 L 62.136719 12.792969 C 62.136719 11.835938 61.546875 11.484375 60.855469 11.484375 C 60.027344 11.484375 59.273438 11.90625 59.261719 13.234375 L 59.261719 17.207031 L 57.257812 17.207031 L 57.257812 10.007812 L 59.261719 10.007812 L 59.261719 10.804688 C 59.761719 10.207031 60.535156 9.867188 61.480469 9.867188 Z M 69.328125 17.335938 C 67.078125 17.335938 65.492188 15.832031 65.492188 13.597656 C 65.492188 11.355469 67.078125 9.863281 69.328125 9.863281 C 71.136719 9.863281 72.492188 10.808594 72.839844 12.511719 L 70.992188 12.714844 C 70.769531 11.855469 70.148438 11.457031 69.304688 11.457031 C 68.226562 11.457031 67.496094 12.308594 67.496094 13.597656 C 67.496094 14.878906 68.226562 15.742188 69.304688 15.742188 C 70.148438 15.742188 70.769531 15.335938 70.992188 14.480469 L 72.839844 14.683594 C 72.492188 16.386719 71.101562 17.335938 69.328125 17.335938 Z M 77.601562 17.347656 C 75.328125 17.347656 73.683594 15.949219 73.683594 13.597656 C 73.683594 11.261719 75.3125 9.863281 77.601562 9.863281 C 79.90625 9.863281 81.527344 11.261719 81.527344 13.597656 C 81.527344 15.949219 79.902344 17.347656 77.601562 17.347656 Z M 77.582031 15.742188 C 78.746094 15.742188 79.539062 14.886719 79.539062 13.597656 C 79.539062 12.308594 78.746094 11.457031 77.582031 11.457031 C 76.460938 11.457031 75.671875 12.308594 75.671875 13.597656 C 75.671875 14.886719 76.460938 15.742188 77.582031 15.742188 Z M 91.496094 9.863281 C 93.027344 9.863281 94.015625 10.648438 94.015625 12.128906 L 94.015625 17.207031 L 92.011719 17.207031 L 92.011719 12.703125 C 92.011719 11.855469 91.480469 11.484375 90.882812 11.484375 C 90.167969 11.484375 89.53125 11.894531 89.53125 13.144531 L 89.53125 17.207031 L 87.507812 17.207031 L 87.507812 12.722656 C 87.507812 11.863281 86.992188 11.484375 86.359375 11.484375 C 85.660156 11.484375 85.015625 11.894531 85.015625 13.25 L 85.015625 17.207031 L 83.019531 17.207031 L 83.019531 10.007812 L 85.015625 10.007812 L 85.015625 10.855469 C 85.488281 10.214844 86.214844 9.867188 87.089844 9.867188 C 88.128906 9.867188 88.90625 10.242188 89.28125 10.945312 C 89.78125 10.222656 90.546875 9.867188 91.496094 9.867188 Z M 100.160156 9.863281 C 102.046875 9.863281 103.609375 11.261719 103.609375 13.621094 C 103.609375 15.980469 102.046875 17.375 100.160156 17.375 C 99.230469 17.375 98.390625 17.007812 97.96875 16.351562 L 97.96875 20.710938 L 95.964844 20.710938 L 95.964844 10.007812 L 97.863281 10.007812 L 97.921875 10.972656 C 98.316406 10.257812 99.183594 9.863281 100.160156 9.863281 Z M 99.710938 15.699219 C 100.757812 15.699219 101.601562 14.929688 101.601562 13.621094 C 101.601562 12.308594 100.757812 11.539062 99.710938 11.539062 C 98.636719 11.539062 97.804688 12.359375 97.804688 13.621094 C 97.804688 14.878906 98.636719 15.699219 99.710938 15.699219 Z M 105.117188 17.207031 L 105.117188 6.449219 L 107.144531 6.449219 L 107.144531 17.207031 Z M 113.902344 10.007812 L 115.953125 10.007812 L 111.539062 20.59375 L 109.507812 20.59375 L 111.144531 16.914062 L 108.199219 10.007812 L 110.386719 10.007812 L 112.09375 14.742188 Z M 113.902344 10.007812 "/>
</g>
</svg>