
<svg xmlns="http://www.w3.org/2000/svg" xmlns:xlink="http://www.w3.org/1999/xlink" width="40px" height="40px" viewBox="0 0 40 40" version="1.1">
<g id="surface1">
<path style=" stroke:none;fill-rule:nonzero;fill:rgb(40.000001%,41.176471%,94.509804%);fill-opacity:1;" d="M 24.667969 5.109375 C 24.894531 5.171875 25.121094 5.234375 25.355469 5.296875 C 29.390625 6.507812 32.359375 9.199219 34.414062 12.816406 C 36.316406 16.464844 36.582031 20.792969 35.402344 24.710938 C 34.023438 28.871094 31.40625 31.898438 27.542969 33.910156 C 26.960938 34.179688 26.375 34.433594 25.777344 34.667969 C 25.558594 34.753906 25.335938 34.839844 25.109375 34.929688 C 21.132812 36.007812 17.453125 35.597656 13.789062 33.652344 C 11.46875 32.257812 9.988281 30.558594 8.632812 28.234375 C 8.289062 27.667969 7.941406 27.167969 7.527344 26.652344 C 6.539062 25.382812 5.65625 23.808594 5.332031 22.222656 C 5.449219 23.667969 5.660156 25.035156 6 26.445312 C 3.921875 24.050781 3.796875 20.78125 4 17.777344 C 4.464844 13.75 6.507812 10.636719 9.460938 7.964844 C 9.996094 7.558594 10.476562 7.328125 11.109375 7.109375 C 11.109375 6.964844 11.109375 6.816406 11.109375 6.667969 C 15.570312 4.441406 19.789062 3.714844 24.667969 5.109375 Z M 14.667969 9.332031 C 14.667969 9.480469 14.667969 9.625 14.667969 9.777344 C 14.433594 9.835938 14.199219 9.898438 13.957031 9.957031 C 12.675781 10.355469 11.992188 10.824219 11.164062 11.886719 C 10.890625 12.222656 10.890625 12.222656 10.347656 12.695312 C 8.96875 14.242188 8.324219 16.15625 7.898438 18.15625 C 7.777344 18.667969 7.777344 18.667969 7.554688 18.890625 C 7.539062 19.335938 7.535156 19.785156 7.542969 20.234375 C 7.542969 20.480469 7.546875 20.726562 7.546875 20.980469 C 7.550781 21.171875 7.554688 21.359375 7.554688 21.554688 C 7.777344 21.445312 7.777344 21.445312 8 21.332031 C 8.144531 20.773438 8.144531 20.773438 8.222656 20.222656 C 8.214844 20.417969 8.203125 20.617188 8.195312 20.820312 C 8.207031 23.128906 8.667969 25.515625 9.777344 27.554688 C 10.453125 28.242188 10.453125 28.242188 11.332031 28.445312 C 11.710938 28.804688 12.082031 29.175781 12.445312 29.554688 C 12.371094 29.261719 12.296875 28.96875 12.222656 28.667969 C 12.074219 28.667969 11.929688 28.667969 11.777344 28.667969 C 11.703125 28.375 11.632812 28.078125 11.554688 27.777344 C 11.691406 27.960938 11.832031 28.144531 11.972656 28.332031 C 13.777344 30.5 16.109375 31.816406 18.890625 32.222656 C 21.175781 32.222656 23.445312 32.019531 25.554688 31.109375 C 25.734375 31.035156 25.910156 30.960938 26.09375 30.882812 C 27.542969 30.214844 28.636719 29.332031 29.777344 28.222656 C 29.703125 28.074219 29.632812 27.929688 29.554688 27.777344 C 29.464844 27.886719 29.371094 27.996094 29.277344 28.109375 C 28.890625 28.445312 28.890625 28.445312 28 28.445312 C 28.089844 28.34375 28.175781 28.246094 28.269531 28.144531 C 28.929688 27.386719 29.503906 26.65625 30 25.777344 C 30.148438 25.570312 30.292969 25.367188 30.445312 25.152344 C 31.453125 23.546875 31.671875 22.167969 31.652344 20.304688 C 31.652344 20.09375 31.652344 19.878906 31.652344 19.660156 C 31.617188 17.878906 31.304688 16.335938 30.667969 14.667969 C 30.519531 14.667969 30.375 14.667969 30.222656 14.667969 C 30.179688 14.453125 30.140625 14.234375 30.097656 14.015625 C 29.523438 12.0625 28.058594 10.875 26.367188 9.875 C 25.453125 9.378906 24.609375 8.964844 23.582031 8.765625 C 23.425781 8.730469 23.273438 8.699219 23.109375 8.667969 C 23 8.445312 23 8.445312 22.890625 8.222656 C 18.65625 8.09375 18.65625 8.09375 14.667969 9.332031 Z M 14.667969 9.332031 "/>
<path style=" stroke:none;fill-rule:nonzero;fill:rgb(45.882353%,47.058824%,94.901961%);fill-opacity:1;" d="M 5.109375 18.667969 C 5.183594 18.667969 5.257812 18.667969 5.332031 18.667969 C 5.375 19.21875 5.417969 19.769531 5.457031 20.320312 C 5.472656 20.476562 5.484375 20.632812 5.496094 20.796875 C 5.523438 21.195312 5.542969 21.597656 5.554688 22 C 5.480469 22.074219 5.410156 22.148438 5.332031 22.222656 C 5.371094 23.660156 5.664062 25.050781 6 26.445312 C 5.019531 25.316406 4.292969 23.714844 4.222656 22.222656 C 4.367188 22.003906 4.515625 21.78125 4.667969 21.554688 C 4.8125 21.554688 4.960938 21.554688 5.109375 21.554688 C 5.109375 20.601562 5.109375 19.648438 5.109375 18.667969 Z M 5.109375 18.667969 "/>
<path style=" stroke:none;fill-rule:nonzero;fill:rgb(61.176473%,61.960787%,96.470588%);fill-opacity:1;" d="M 30.445312 26.667969 C 30.445312 27.332031 30.445312 27.332031 30.136719 27.699219 C 30 27.816406 29.863281 27.933594 29.722656 28.054688 C 29.519531 28.234375 29.519531 28.234375 29.316406 28.421875 C 28.890625 28.667969 28.890625 28.667969 28.390625 28.59375 C 28.261719 28.542969 28.132812 28.496094 28 28.445312 C 28.324219 27.589844 28.746094 27.292969 29.554688 26.890625 C 30.070312 26.734375 30.070312 26.734375 30.445312 26.667969 Z M 30.445312 26.667969 "/>
<path style=" stroke:none;fill-rule:nonzero;fill:rgb(86.274511%,86.274511%,98.431373%);fill-opacity:1;" d="M 29.554688 27.777344 C 29.554688 28.445312 29.554688 28.445312 29.140625 28.890625 C 28.960938 29.046875 28.78125 29.199219 28.597656 29.359375 C 28.332031 29.597656 28.332031 29.597656 28.058594 29.835938 C 27.554688 30.222656 27.554688 30.222656 26.890625 30.445312 C 26.816406 30.152344 26.742188 29.859375 26.667969 29.554688 C 27.464844 29 28.207031 28.574219 29.109375 28.222656 C 29.257812 28.074219 29.40625 27.929688 29.554688 27.777344 Z M 29.554688 27.777344 "/>
<path style=" stroke:none;fill-rule:nonzero;fill:rgb(80.000001%,80.392158%,98.039216%);fill-opacity:1;" d="M 9.777344 26 C 10.257812 26.46875 10.710938 26.953125 11.152344 27.457031 C 11.269531 27.589844 11.386719 27.726562 11.507812 27.863281 C 11.777344 28.222656 11.777344 28.222656 11.777344 28.667969 C 11.925781 28.667969 12.070312 28.667969 12.222656 28.667969 C 12.296875 28.960938 12.367188 29.253906 12.445312 29.554688 C 12.273438 29.371094 12.105469 29.1875 11.929688 29 C 11.386719 28.367188 11.386719 28.367188 10.667969 28.445312 C 10.515625 28.121094 10.371094 27.796875 10.222656 27.472656 C 10.140625 27.292969 10.058594 27.109375 9.972656 26.925781 C 9.777344 26.445312 9.777344 26.445312 9.777344 26 Z M 9.777344 26 "/>
<path style=" stroke:none;fill-rule:nonzero;fill:rgb(68.627453%,69.411767%,96.862745%);fill-opacity:1;" d="M 5.109375 18.667969 C 5.183594 18.667969 5.257812 18.667969 5.332031 18.667969 C 5.390625 19.203125 5.4375 19.738281 5.484375 20.277344 C 5.503906 20.429688 5.519531 20.582031 5.535156 20.738281 C 5.625 21.804688 5.570312 21.980469 4.890625 22.890625 C 4.960938 21.496094 5.035156 20.101562 5.109375 18.667969 Z M 5.109375 18.667969 "/>
<path style=" stroke:none;fill-rule:nonzero;fill:rgb(76.47059%,76.862746%,97.647059%);fill-opacity:1;" d="M 29.109375 27.332031 C 29.257812 27.40625 29.40625 27.480469 29.554688 27.554688 C 29.152344 28 29.152344 28 28.667969 28.445312 C 28.445312 28.445312 28.226562 28.445312 28 28.445312 C 28.179688 28.015625 28.179688 28.015625 28.445312 27.554688 C 28.664062 27.480469 28.882812 27.410156 29.109375 27.332031 Z M 29.109375 27.332031 "/>
</g>
</svg>