<svg width="16" height="16" viewBox="0 0 16 16" fill="current" xmlns="http://www.w3.org/2000/svg">
    <path d="M10.1075 5.07029C9.77224 5.29381 8.71054 5.86856 8.55088 6.02024C8.42882 6.13826 8.26566 6.20424 8.09587 6.20424C7.92607 6.20424 7.76292 6.13826 7.64085 6.02024C7.4812 5.89251 6.4195 5.28583 6.08423 5.07029C5.74895 4.85476 5.725 4.5115 6.14809 4.33588C6.7665 4.06716 7.43357 3.92849 8.10784 3.92849C8.78212 3.92849 9.44918 4.06716 10.0676 4.33588C10.4587 4.50352 10.4747 4.81485 10.0676 5.05433M15.8311 10.8657C15.0975 9.20464 14.0729 7.68803 12.8057 6.38744C12.4009 5.96705 12.1097 5.45061 11.9595 4.88669C11.8797 4.62326 11.8238 4.35185 11.7679 4.08842C11.668 3.36325 11.4804 2.65291 11.2091 1.973C10.9548 1.37487 10.5265 0.867029 9.97987 0.515417C9.43323 0.163805 8.79351 -0.0153293 8.14376 0.00127659C7.48841 -0.0227582 6.8404 0.14593 6.27994 0.486458C5.71949 0.826986 5.27121 1.3244 4.9906 1.91713C4.82567 2.25764 4.70238 2.61679 4.62339 2.98681C4.48769 3.59349 4.36795 4.22413 4.22426 4.8388C4.10047 5.36332 3.82243 5.83876 3.42599 6.20384C2.15844 7.44113 1.11101 8.88539 0.328697 10.4746C0.212014 10.7007 0.113258 10.9355 0.033337 11.1771C-0.118334 11.7039 0.264835 12.0711 0.831607 11.9753C1.18285 11.9035 1.53409 11.8316 1.86936 11.7279C2.20463 11.6241 2.32437 11.7279 2.4042 12.0073C2.6402 12.833 3.07069 13.59 3.6596 14.2151C4.24851 14.8401 4.97866 15.3148 5.78887 15.5995C9.07774 16.8448 12.9174 15.0726 13.7716 11.9434C13.8274 11.7279 13.9073 11.648 14.1468 11.7279C14.514 11.8396 14.8891 11.9195 15.2643 12.0073C15.3467 12.0313 15.4334 12.0366 15.5181 12.0228C15.6027 12.009 15.6832 11.9764 15.7537 11.9274C15.8241 11.8784 15.8827 11.8142 15.9251 11.7397C15.9675 11.6651 15.9927 11.5819 15.9987 11.4964C16.0082 11.2943 15.9641 11.0933 15.871 10.9136"/>
</svg>
