<svg width="24" height="24" viewBox="0 0 24 24" fill="current" xmlns="http://www.w3.org/2000/svg">
    <path fill-rule="evenodd" clip-rule="evenodd"
          d="M11.3167 12.3473C11.3207 13.9464 11.3255 16.6634 11.3295 18.775C14.2208 19.166 17.112 19.569 19.9984 20C19.9984 17.479 20.0016 14.969 19.9984 12.5703C17.1048 12.5703 14.2119 12.3473 11.3167 12.3473ZM4 12.348V17.7773C6.18065 18.0716 8.3613 18.3528 10.5379 18.6742C10.542 16.5738 10.5363 14.4727 10.5363 12.3723C8.35729 12.3763 6.17905 12.3409 4 12.348ZM4 6.27461V11.6887C6.18065 11.6943 8.3613 11.6613 10.542 11.6637C10.5404 9.56802 10.5404 7.47494 10.5379 5.3793C8.35569 5.65194 6.17343 5.94039 4 6.27461ZM20 11.5773C17.1104 11.5885 14.2208 11.6326 11.3295 11.6414C11.3279 9.51137 11.3279 7.38389 11.3295 5.25547C14.2151 4.81491 17.1072 4.40058 19.9984 4C20 6.52661 19.9984 9.05074 20 11.5773Z"/>
</svg>
