<svg width="16" height="16" viewBox="0 0 16 16" fill="none" xmlns="http://www.w3.org/2000/svg">
<path fill-rule="evenodd" clip-rule="evenodd" d="M13.4167 11.3296H5.41667C5.048 11.3296 4.75 11.6276 4.75 11.9963C4.75 12.3649 5.048 12.6629 5.41667 12.6629H13.4167C13.7854 12.6629 14.0834 12.3649 14.0834 11.9963C14.0834 11.6276 13.7854 11.3296 13.4167 11.3296Z" fill="#6B7280"/>
<path fill-rule="evenodd" clip-rule="evenodd" d="M13.4167 7.32959H5.41667C5.048 7.32959 4.75 7.62759 4.75 7.99626C4.75 8.36492 5.048 8.66292 5.41667 8.66292H13.4167C13.7854 8.66292 14.0834 8.36492 14.0834 7.99626C14.0834 7.62759 13.7854 7.32959 13.4167 7.32959Z" fill="#6B7280"/>
<path fill-rule="evenodd" clip-rule="evenodd" d="M5.41667 4.66292H13.4167C13.7854 4.66292 14.0834 4.36492 14.0834 3.99626C14.0834 3.62759 13.7854 3.32959 13.4167 3.32959H5.41667C5.048 3.32959 4.75 3.62759 4.75 3.99626C4.75 4.36492 5.048 4.66292 5.41667 4.66292Z" fill="#6B7280"/>
<path fill-rule="evenodd" clip-rule="evenodd" d="M2.75864 3.15625C2.2953 3.15625 1.91797 3.53558 1.91797 4.00291C1.91797 4.46558 2.2953 4.84225 2.75864 4.84225C3.22197 4.84225 3.59997 4.46558 3.59997 4.00291C3.59997 3.53558 3.22197 3.15625 2.75864 3.15625Z" fill="#6B7280"/>
<path fill-rule="evenodd" clip-rule="evenodd" d="M2.75864 7.25C2.2953 7.25 1.91797 7.62667 1.91797 8.09C1.91797 8.55267 2.2953 8.93 2.75864 8.93C3.22197 8.93 3.59997 8.55267 3.59997 8.09C3.59997 7.62667 3.22197 7.25 2.75864 7.25Z" fill="#6B7280"/>
<path fill-rule="evenodd" clip-rule="evenodd" d="M2.75864 11.1562C2.2953 11.1562 1.91797 11.5356 1.91797 12.0029C1.91797 12.4656 2.2953 12.8422 2.75864 12.8422C3.22197 12.8422 3.59997 12.4656 3.59997 12.0029C3.59997 11.5356 3.22197 11.1562 2.75864 11.1562Z" fill="#6B7280"/>
</svg>
