<svg width="16" height="16" viewBox="0 0 16 16" fill="none" xmlns="http://www.w3.org/2000/svg">
<path fill-rule="evenodd" clip-rule="evenodd" d="M5.15957 3.059C5.70592 2.33706 6.58054 1.75977 7.83916 1.75977C9.09779 1.75977 9.97241 2.33706 10.5188 3.059C10.927 3.59845 11.1546 4.22015 11.2382 4.74851C11.8616 4.83415 12.4344 5.09216 12.8789 5.51657C13.4301 6.04274 13.7519 6.7942 13.7519 7.69679C13.7519 8.90479 13.0348 9.94735 12.0016 10.4149C11.995 10.4179 11.9883 10.4208 11.9816 10.4234C11.5517 10.595 11.1267 10.6594 10.7931 10.6594H4.88089C4.54576 10.6594 4.12055 10.5917 3.6959 10.4193C3.69022 10.4169 3.68458 10.4146 3.67898 10.412C2.64592 9.94556 1.92578 8.90594 1.92578 7.69679C1.92578 6.79407 2.24785 6.04265 2.79918 5.51651C3.24388 5.09214 3.81673 4.83414 4.44012 4.7485C4.52373 4.22015 4.75131 3.59845 5.15957 3.059ZM5.92506 3.63832C5.52416 4.16805 5.36275 4.8048 5.36275 5.19682C5.36275 5.46021 5.1505 5.6744 4.88712 5.67679C4.30796 5.68206 3.81075 5.87815 3.46195 6.21102C3.11726 6.53996 2.88578 7.03228 2.88578 7.69679C2.88578 8.51183 3.36853 9.21461 4.06573 9.53327C4.36793 9.65461 4.66636 9.69941 4.88089 9.69941H10.7931C11.01 9.69941 11.3094 9.65641 11.6156 9.53589C12.3107 9.21679 12.7919 8.51241 12.7919 7.69679C12.7919 7.03221 12.5606 6.53988 12.2161 6.21096C11.8674 5.87815 11.3704 5.68206 10.7912 5.67679C10.5279 5.6744 10.3156 5.46021 10.3156 5.19682C10.3156 4.8048 10.1542 4.16805 9.75328 3.63832C9.36723 3.12816 8.76364 2.71977 7.83916 2.71977C6.91475 2.71977 6.31115 3.12816 5.92506 3.63832Z" fill="#6B7280"/>
<path fill-rule="evenodd" clip-rule="evenodd" d="M7.84177 12.3453C7.58321 12.3453 7.37406 12.5543 7.37406 12.8129C7.37406 13.0719 7.5836 13.2813 7.84177 13.2813C8.10033 13.2813 8.31013 13.0715 8.31013 12.8129C8.31013 12.5548 8.10078 12.3453 7.84177 12.3453ZM6.41406 12.8129C6.41406 12.0242 7.05304 11.3853 7.84177 11.3853C8.63013 11.3853 9.27013 12.0238 9.27013 12.8129C9.27013 13.6017 8.63057 14.2413 7.84177 14.2413C7.05259 14.2413 6.41406 13.6013 6.41406 12.8129Z" fill="#6B7280"/>
<path fill-rule="evenodd" clip-rule="evenodd" d="M3.67578 12.8125C3.67578 12.5474 3.89069 12.3325 4.15578 12.3325H6.89928C7.16436 12.3325 7.37928 12.5474 7.37928 12.8125C7.37928 13.0776 7.16436 13.2925 6.89928 13.2925H4.15578C3.89069 13.2925 3.67578 13.0776 3.67578 12.8125ZM8.29288 12.8125C8.29288 12.5474 8.50779 12.3325 8.77288 12.3325H11.5219C11.7871 12.3325 12.0019 12.5474 12.0019 12.8125C12.0019 13.0776 11.7871 13.2925 11.5219 13.2925H8.77288C8.50779 13.2925 8.29288 13.0776 8.29288 12.8125Z" fill="#6B7280"/>
<path fill-rule="evenodd" clip-rule="evenodd" d="M7.83937 9.70996C8.10446 9.70996 8.31937 9.92487 8.31937 10.19V11.8606C8.31937 12.1256 8.10446 12.3406 7.83937 12.3406C7.57422 12.3406 7.35938 12.1256 7.35938 11.8606V10.19C7.35938 9.92487 7.57422 9.70996 7.83937 9.70996Z" fill="#6B7280"/>
</svg>
