<svg width="16" height="16" viewBox="0 0 16 16" fill="none" xmlns="http://www.w3.org/2000/svg">
<path fill-rule="evenodd" clip-rule="evenodd" d="M8.32323 1.3335C9.07856 1.3335 13.0419 2.69416 13.5666 3.21883C14.0039 3.65616 13.9972 4.0095 13.9666 5.70283C13.9546 6.3815 13.9379 7.30616 13.9379 8.58616C13.9379 13.1742 8.69123 14.8155 8.4679 14.8828C8.42056 14.8975 8.3719 14.9042 8.32323 14.9042C8.27456 14.9042 8.2259 14.8975 8.17856 14.8828C7.95523 14.8155 2.70856 13.1742 2.70856 8.58616C2.70856 7.30816 2.6919 6.3835 2.6799 5.70483C2.67442 5.40209 2.66971 5.14215 2.66816 4.91688L2.66797 4.66267C2.67369 3.82758 2.75206 3.54683 3.08056 3.21883C3.6039 2.69416 7.56723 1.3335 8.32323 1.3335ZM8.32323 2.3335C7.7579 2.3335 4.19123 3.5895 3.7799 3.93283C3.65856 4.05483 3.6539 4.26683 3.6799 5.68616C3.6919 6.37016 3.70856 7.2995 3.70856 8.58616C3.70856 12.0535 7.52323 13.5928 8.32256 13.8762C9.12123 13.5915 12.9379 12.0435 12.9379 8.58616C12.9379 7.29816 12.9546 6.36816 12.9672 5.68416C12.9926 4.26616 12.9879 4.05416 12.8592 3.92616C12.4559 3.5895 8.88856 2.3335 8.32323 2.3335ZM10.8042 6.2265C10.9996 6.42183 10.9996 6.7385 10.8042 6.93383L8.20556 9.53316C8.1309 9.60836 8.03447 9.65711 7.93096 9.6736L7.85223 9.67983C7.71956 9.67983 7.59223 9.62716 7.49823 9.53316L6.2369 8.2705C6.04223 8.07516 6.04223 7.75783 6.23756 7.56316C6.43223 7.36783 6.74956 7.36783 6.9449 7.56316L7.85223 8.47183L10.0976 6.2265C10.2929 6.03116 10.6089 6.03116 10.8042 6.2265Z" fill="#6B7280"/>
</svg>
