<svg width="16" height="16" viewBox="0 0 16 16" fill="none" xmlns="http://www.w3.org/2000/svg">
<path fill-rule="evenodd" clip-rule="evenodd" d="M3.48827 2.01514C3.75336 2.01514 3.96827 2.23004 3.96827 2.49514V4.58356C3.96827 4.84865 3.75336 5.06356 3.48827 5.06356C3.22317 5.06356 3.00827 4.84865 3.00827 4.58356V2.49514C3.00827 2.23004 3.22317 2.01514 3.48827 2.01514ZM8.0014 2.01514C8.26649 2.01514 8.4814 2.23004 8.4814 2.49514V8.76039C8.4814 9.02548 8.26649 9.24039 8.0014 9.24039C7.73631 9.24039 7.5214 9.02548 7.5214 8.76039V2.49514C7.5214 2.23004 7.73631 2.01514 8.0014 2.01514ZM12.5145 2.01514C12.7796 2.01514 12.9945 2.23004 12.9945 2.49514V4.31207C12.9945 4.57717 12.7796 4.79207 12.5145 4.79207C12.2494 4.79207 12.0345 4.57717 12.0345 4.31207V2.49514C12.0345 2.23004 12.2494 2.01514 12.5145 2.01514ZM10.788 6.91585C10.788 6.65072 11.0029 6.43582 11.268 6.43582H13.7617C14.0268 6.43582 14.2417 6.65072 14.2417 6.91585C14.2417 7.18094 14.0268 7.39585 13.7617 7.39585H12.9945V13.5043C12.9945 13.7694 12.7796 13.9843 12.5145 13.9843C12.2494 13.9843 12.0345 13.7694 12.0345 13.5043V7.39585H11.268C11.0029 7.39585 10.788 7.18094 10.788 6.91585ZM1.76172 7.18765C1.76172 6.9225 1.97662 6.70763 2.24172 6.70763H4.7355C5.00059 6.70763 5.2155 6.9225 5.2155 7.18765C5.2155 7.45274 5.00059 7.66765 4.7355 7.66765H3.96827V13.5046C3.96827 13.7697 3.75336 13.9846 3.48827 13.9846C3.22317 13.9846 3.00827 13.7697 3.00827 13.5046V7.66765H2.24172C1.97662 7.66765 1.76172 7.45274 1.76172 7.18765ZM6.27483 11.3645C6.27483 11.0994 6.48972 10.8845 6.75481 10.8845H9.24863C9.51372 10.8845 9.72863 11.0994 9.72863 11.3645C9.72863 11.6296 9.51372 11.8445 9.24863 11.8445H8.4814V13.5046C8.4814 13.7697 8.26649 13.9846 8.0014 13.9846C7.73631 13.9846 7.5214 13.7697 7.5214 13.5046V11.8445H6.75481C6.48972 11.8445 6.27483 11.6296 6.27483 11.3645Z" fill="#6B7280"/>
</svg>
