<svg width="16" height="16" viewBox="0 0 16 16" fill="none" xmlns="http://www.w3.org/2000/svg">
<path fill-rule="evenodd" clip-rule="evenodd" d="M13.4202 5.53327C13.3669 5.45993 13.2736 5.4066 13.1802 5.4066C13.0869 5.39993 12.9869 5.43327 12.9202 5.49993L10.6214 7.83103C10.5748 7.8783 10.5556 7.9455 10.5637 8.01137C10.7148 9.2501 9.25018 10.7606 8.02351 10.5625C7.95471 10.5514 7.88325 10.5698 7.83358 10.6187L6.13355 12.2933C6.04688 12.3733 6.01355 12.5 6.04021 12.6133C6.07355 12.7333 6.16021 12.82 6.28021 12.8533C6.82025 12.9933 7.40025 13.0666 8.00691 13.0666C11.3202 13.0666 14.3336 10.6533 14.3336 7.99997C14.3336 7.16663 14.0202 6.31327 13.4202 5.53327Z" fill="#6B7280"/>
<path fill-rule="evenodd" clip-rule="evenodd" d="M5.45464 7.99983C5.45464 6.59318 6.59464 5.44652 8.0013 5.44652C8.4395 5.44652 8.84997 5.55728 9.20977 5.74807C9.32184 5.8075 9.3371 5.95735 9.24743 6.04704L8.7885 6.50598C8.7283 6.56617 8.63703 6.5805 8.5575 6.55018C8.38497 6.48442 8.19737 6.44652 8.0013 6.44652C7.14797 6.44652 6.45464 7.1465 6.45464 7.99983C6.45464 8.19463 6.4879 8.37696 6.55441 8.54683C6.58615 8.62783 6.57286 8.72163 6.51132 8.78316L6.05516 9.23936C5.96547 9.32903 5.81559 9.3137 5.75598 9.20176C5.56532 8.84363 5.45464 8.4379 5.45464 7.99983ZM13.468 3.23985C13.6613 3.04652 13.6613 2.73318 13.468 2.53318C13.2746 2.33985 12.9546 2.33985 12.7613 2.53318L11.448 3.84652C10.388 3.25985 9.18797 2.93318 8.0013 2.93318C4.74797 2.93318 1.66797 5.39985 1.66797 7.99983C1.66797 9.29983 2.41464 10.6065 3.69464 11.5998L2.53464 12.7598C2.3413 12.9598 2.3413 13.2732 2.53464 13.4665C2.63464 13.5665 2.7613 13.6132 2.88797 13.6132C3.01464 13.6132 3.1413 13.5665 3.2413 13.4665L13.468 3.23985Z" fill="#6B7280"/>
</svg>
