<svg width="16" height="16" viewBox="0 0 16 16" fill="none" xmlns="http://www.w3.org/2000/svg">
<path fill-rule="evenodd" clip-rule="evenodd" d="M8.00057 6.45312C7.14523 6.45312 6.44922 7.14713 6.44922 7.9998C6.44922 8.85646 7.14523 9.55313 8.00057 9.55313C8.8559 9.55313 9.55123 8.85646 9.55123 7.9998C9.55123 7.14713 8.8559 6.45312 8.00057 6.45312Z" fill="#6B7280"/>
<path fill-rule="evenodd" clip-rule="evenodd" d="M8.0035 10.5528C6.5968 10.5528 5.45214 9.40744 5.45214 7.99944C5.45214 6.5948 6.5968 5.4528 8.0035 5.4528C9.41016 5.4528 10.5542 6.5948 10.5542 7.99944C10.5542 9.40744 9.41016 10.5528 8.0035 10.5528ZM14.3082 7.8681C12.9795 4.77746 10.6215 2.93213 8.00016 2.93213C5.38014 2.93213 3.02347 4.77746 1.69547 7.8681C1.6588 7.9521 1.6588 8.04677 1.69547 8.13077C3.0228 11.2201 5.37947 13.0654 7.9995 13.0668H8.0035C10.6235 13.0654 12.9802 11.2201 14.3082 8.13077C14.3442 8.04677 14.3442 7.9521 14.3082 7.8681Z" fill="#6B7280"/>
</svg>
