<svg width="16" height="16" viewBox="0 0 16 16" fill="none" xmlns="http://www.w3.org/2000/svg">
<path d="M6.96709 13.6005L5.82812 12.0151L7.40485 10.8823" stroke="#6B7280" stroke-linecap="round" stroke-linejoin="round"/>
<path d="M2.44922 3.47001L4.39083 3.26514L4.59446 5.19554" stroke="#6B7280" stroke-linecap="round" stroke-linejoin="round"/>
<path d="M13.5531 4.6377L12.7355 6.41057L10.9727 5.59792" stroke="#6B7280" stroke-linecap="round" stroke-linejoin="round"/>
<path d="M12.529 8.75C12.4243 9.0819 12.2792 9.41195 12.0993 9.72952C10.8482 11.9352 8.21106 12.8505 5.91016 12.0143" stroke="#6B7280" stroke-linecap="round" stroke-linejoin="round"/>
<path d="M3.91042 10.7047C3.67379 10.4494 3.45833 10.1598 3.27214 9.84662C1.97442 7.66838 2.48379 4.92282 4.34943 3.3374" stroke="#6B7280" stroke-linecap="round" stroke-linejoin="round"/>
<path d="M6.58594 2.18968C6.92653 2.11682 7.28525 2.08008 7.65012 2.08008C10.1858 2.08008 12.2831 3.92268 12.691 6.33693" stroke="#6B7280" stroke-linecap="round" stroke-linejoin="round"/>
</svg>
