<svg width="16" height="16" viewBox="0 0 16 16" fill="none" xmlns="http://www.w3.org/2000/svg">
<path d="M2.94922 4V7.9998C2.94922 7.9998 2.94922 9.9996 8.00163 9.9996C13.0541 9.9996 13.0541 7.9998 13.0541 7.9998V4" stroke="#6B7280" stroke-linecap="round" stroke-linejoin="round"/>
<path d="M2.94922 8V11.9997C2.94922 11.9997 2.94922 14.0003 8.00163 14.0003C13.0541 14.0003 13.0541 11.9997 13.0541 11.9997V8" stroke="#6B7280" stroke-linecap="round" stroke-linejoin="round"/>
<path d="M8.00166 6.02511C10.792 6.02511 13.0541 5.12406 13.0541 4.01255C13.0541 2.90105 10.792 2 8.00166 2C5.21127 2 2.94922 2.90105 2.94922 4.01255C2.94922 5.12406 5.21127 6.02511 8.00166 6.02511Z" stroke="#6B7280" stroke-linecap="round" stroke-linejoin="round"/>
</svg>
