<svg width="16" height="16" viewBox="0 0 16 16" fill="none" xmlns="http://www.w3.org/2000/svg">
<path fill-rule="evenodd" clip-rule="evenodd" d="M8 2.5C4.96243 2.5 2.5 4.96243 2.5 8C2.5 11.0375 4.96243 13.5 8 13.5C11.0375 13.5 13.5 11.0375 13.5 8C13.5 4.96243 11.0375 2.5 8 2.5ZM1.5 8C1.5 4.41015 4.41015 1.5 8 1.5C11.5899 1.5 14.5 4.41015 14.5 8C14.5 11.5899 11.5899 14.5 8 14.5C4.41015 14.5 1.5 11.5899 1.5 8Z" fill="#6B7280"/>
<path fill-rule="evenodd" clip-rule="evenodd" d="M10.0902 5.82136C8.936 4.66719 7.06473 4.66719 5.91054 5.82136C4.82774 6.90413 4.76068 8.6188 5.70981 9.77927C5.88464 9.993 5.85309 10.308 5.63933 10.4828C5.42558 10.6577 5.11057 10.6261 4.93575 10.4123C3.66467 8.85827 3.75375 6.56393 5.20343 5.11425C6.74813 3.56955 9.2526 3.56955 10.7973 5.11425C12.247 6.56393 12.3361 8.85827 11.065 10.4123C10.8901 10.6261 10.5751 10.6577 10.3614 10.4828C10.1477 10.308 10.1161 9.993 10.2909 9.77927C11.2401 8.6188 11.173 6.90413 10.0902 5.82136Z" fill="#6B7280"/>
<path fill-rule="evenodd" clip-rule="evenodd" d="M9.6056 6.22719C9.80087 6.42246 9.8008 6.73907 9.60553 6.93427L8.19793 8.3418C8.00267 8.53707 7.68607 8.537 7.4908 8.34173C7.2956 8.14647 7.2956 7.82993 7.49087 7.63467L8.89847 6.22716C9.09373 6.03191 9.41033 6.03192 9.6056 6.22719Z" fill="#6B7280"/>
</svg>
