<svg width="16" height="16" viewBox="0 0 16 16" fill="none" xmlns="http://www.w3.org/2000/svg">
<path fill-rule="evenodd" clip-rule="evenodd" d="M6.45009 8.77552C6.87462 8.34739 6.86882 7.64112 6.43712 7.21152C6.00829 6.78486 5.29622 6.78486 4.87315 7.21226C4.43279 7.65839 4.43856 8.35459 4.88613 8.79932C5.31063 9.22166 6.01911 9.21086 6.45009 8.77552Z" stroke="#6B7280" stroke-linecap="round" stroke-linejoin="round"/>
<path fill-rule="evenodd" clip-rule="evenodd" d="M1.92344 6.55107C1.23299 7.2444 1.13569 8.38747 1.69785 9.18313C1.81317 9.34676 3.44849 10.9763 4.12525 11.6509C4.79408 12.319 5.60418 12.6484 6.54688 12.6498C8.54906 12.6513 10.5512 12.6513 12.5534 12.6491C13.7375 12.6484 14.655 11.7468 14.6608 10.5633C14.6687 8.8552 14.668 7.1464 14.6608 5.43827C14.6557 4.25627 13.7383 3.35393 12.5534 3.35253C10.5339 3.3496 8.51446 3.34673 6.49499 3.35253C5.71372 3.35467 5.0103 3.599 4.40561 4.10133C3.92272 4.5028 2.30182 6.17127 1.92344 6.55107Z" stroke="#6B7280" stroke-linecap="round" stroke-linejoin="round"/>
</svg>
